<svg width="142" height="67" viewBox="0 0 142 67" fill="none" xmlns="http://www.w3.org/2000/svg">
<path d="M49.1392 45.7382V30.2742H59.9235V32.9649H52.2768V36.4687H58.9778V39.1567H52.2768V45.7382H49.1392Z" fill="#2F80ED"/>
<path d="M61.5563 45.7382V30.2742H64.7357V45.7382H61.5563Z" fill="#2F80ED"/>
<path d="M66.8414 38.0219C66.8414 35.5239 67.5215 33.5419 68.8817 32.0758C70.242 30.6098 72.0759 29.8759 74.3836 29.8741C76.6913 29.8741 78.5288 30.6098 79.896 32.081C81.2632 33.5523 81.9468 35.5326 81.9468 38.0219C81.9468 40.5129 81.2632 42.4941 79.896 43.9653C78.5288 45.4366 76.6913 46.1714 74.3836 46.1696C72.0759 46.1696 70.242 45.4349 68.8817 43.9653C67.5215 42.4958 66.8414 40.5147 66.8414 38.0219ZM70.0835 38.0219C70.0835 39.7232 70.4605 41.0446 71.2147 41.9859C71.9688 42.9273 73.0251 43.3979 74.3836 43.3979C75.756 43.3979 76.8228 42.9273 77.5839 41.9859C78.345 41.0446 78.7256 39.7232 78.7256 38.0219C78.7256 36.3223 78.345 35.0009 77.5839 34.0578C76.8228 33.1148 75.756 32.6441 74.3836 32.6458C73.0286 32.6458 71.9723 33.1148 71.2147 34.0526C70.4571 34.9905 70.08 36.3135 70.0835 38.0219Z" fill="#2F80ED"/>
<path d="M97.3761 40.4275C97.256 42.1847 96.5793 43.5792 95.3462 44.6112C94.1132 45.6432 92.503 46.1609 90.5158 46.1644C88.2272 46.1644 86.449 45.4506 85.1811 44.0229C83.9131 42.5952 83.2783 40.5905 83.2766 38.0088C83.2766 35.3783 83.9236 33.3623 85.2176 31.9608C86.5117 30.5593 88.3718 29.862 90.7979 29.8689C92.7695 29.8689 94.3274 30.3501 95.4717 31.3123C96.6159 32.2746 97.2438 33.6343 97.3553 35.3914H94.2203C94.1378 34.6108 93.7545 33.8932 93.1518 33.3911C92.5692 32.9335 91.788 32.7034 90.8005 32.7034C89.4072 32.7034 88.3448 33.1549 87.6133 34.0579C86.8818 34.9608 86.5178 36.2805 86.5213 38.0167C86.5213 39.6989 86.8835 40.9976 87.6081 41.9127C88.3326 42.8279 89.3619 43.2864 90.696 43.2881C91.5479 43.3255 92.386 43.0637 93.0655 42.5481C93.7089 42.0083 94.1342 41.2528 94.2621 40.4223L97.3761 40.4275Z" fill="#2F80ED"/>
<path d="M99.3773 45.7382V30.2742H106.867C108.552 30.2742 109.799 30.6351 110.611 31.3568C111.423 32.0784 111.828 33.1802 111.828 34.6619C111.857 35.4866 111.651 36.3025 111.235 37.0152C110.845 37.6405 110.239 38.1003 109.532 38.3069C110.125 38.4849 110.634 38.8723 110.964 39.3973C111.246 39.8889 111.408 40.6498 111.45 41.6879L111.512 43.5182V43.581C111.537 44.5066 111.736 45.0671 112.111 45.2623V45.733H108.628C108.504 45.4789 108.416 45.2087 108.367 44.9302C108.301 44.5545 108.264 44.1742 108.257 43.7928L108.215 42.1638C108.179 41.2067 107.999 40.5591 107.675 40.221C107.351 39.8828 106.765 39.7154 105.916 39.7189H102.554V45.733L99.3773 45.7382ZM102.554 37.0361H106.29C107.1 37.0361 107.698 36.8714 108.08 36.5419C108.461 36.2125 108.649 35.6947 108.649 34.9887C108.669 34.7093 108.63 34.4288 108.534 34.1656C108.438 33.9024 108.288 33.6625 108.093 33.4617C107.724 33.1139 107.17 32.9387 106.436 32.9387H102.554V37.0361Z" fill="#2F80ED"/>
<path d="M114.08 30.2324H117.291V39.9333C117.291 41.1309 117.529 42.0025 118.004 42.5481C118.48 43.0937 119.235 43.3683 120.269 43.3718C121.314 43.3718 122.082 43.1103 122.563 42.5533C123.044 41.9964 123.282 41.1309 123.282 39.9385V30.2376H126.458V40.2863C126.458 42.1829 125.929 43.6385 124.87 44.653C123.811 45.6676 122.285 46.1748 120.293 46.1748C118.285 46.1748 116.748 45.6693 115.682 44.6582C114.616 43.6472 114.082 42.1899 114.08 40.2863V30.2324Z" fill="#2F80ED"/>
<path d="M127.833 45.7382V43.0528L136.234 33.0773H128.002V30.2742H140.098V32.9649L131.66 42.9456H139.894V45.7382H127.833Z" fill="#2F80ED"/>
<path d="M10.2523 62.2115H11.9164C11.9073 62.8544 11.7631 63.4882 11.493 64.0717C11.2229 64.6551 10.8331 65.175 10.3489 65.5976C9.37185 66.4361 8.11176 66.8562 6.56865 66.858C4.79042 66.858 3.39709 66.2993 2.38867 65.1819C1.38025 64.0645 0.876038 62.5183 0.876038 60.5432C0.876038 58.7198 1.40463 57.2721 2.46182 56.2C3.519 55.128 4.94629 54.5919 6.74368 54.5919C8.17359 54.5919 9.34398 54.9318 10.2549 55.6117C10.7007 55.9366 11.0725 56.3527 11.3454 56.8324C11.6184 57.312 11.7863 57.8443 11.838 58.3938H10.1504C10.0864 58.0372 9.95263 57.6967 9.75669 57.392C9.56076 57.0873 9.30656 56.8244 9.00871 56.6184C8.30676 56.1759 7.4861 55.9596 6.65747 55.9987C5.37387 55.9987 4.38025 56.4127 3.67662 57.2407C2.97299 58.0687 2.61944 59.2358 2.61595 60.7419C2.61595 62.1644 2.98344 63.3045 3.71842 64.1621C4.07626 64.584 4.52499 64.9191 5.03088 65.1424C5.53677 65.3657 6.08666 65.4713 6.63919 65.4512C7.56952 65.4899 8.47955 65.1719 9.18375 64.5622C9.51399 64.2651 9.77936 63.903 9.96322 63.4985C10.1471 63.094 10.2455 62.6558 10.2523 62.2115Z" fill="#2F80ED"/>
<path d="M12.0941 66.5338L16.7966 54.8926H18.6906L23.3931 66.5338H21.5304L20.1928 63.0561H15.2291L13.8811 66.5338H12.0941ZM15.7516 61.6964H19.6886L17.7345 56.5609L15.7516 61.6964Z" fill="#2F80ED"/>
<path d="M25.8357 56.6158V66.5338H24.2682V54.8926H26.7214L29.8564 63.7987C29.9487 64.0514 30.0166 64.2476 30.0601 64.387C30.1019 64.5282 30.1359 64.6485 30.1568 64.7557C30.2038 64.5596 30.2482 64.387 30.2953 64.2327C30.3423 64.0785 30.3893 63.9373 30.4416 63.7987L33.6837 54.8926H36.1446V66.5338H34.4752V56.6158C34.4361 56.7831 34.389 56.9531 34.3394 57.1388C34.2898 57.3244 34.2323 57.4787 34.1748 57.6486L30.9249 66.539H29.3025L26.1283 57.6486C26.0709 57.4996 26.0212 57.3427 25.9742 57.1728C25.9272 57.0028 25.8749 56.8093 25.8357 56.6158Z" fill="#2F80ED"/>
<path d="M38.394 66.5337V54.8926H43.0442C43.6207 54.8811 44.1973 54.9152 44.7685 54.9946C45.1318 55.0551 45.484 55.1697 45.8134 55.3345C46.3179 55.5839 46.7324 55.9841 46.9995 56.4798C47.2835 57.0285 47.4245 57.6401 47.4097 58.2579C47.4226 58.8554 47.2813 59.4462 46.9995 59.9732C46.7185 60.4742 46.3019 60.8856 45.7978 61.1603C45.464 61.3384 45.1029 61.4595 44.7293 61.5186C44.0598 61.6054 43.3847 61.6413 42.7098 61.6258H40.0973V66.5337H38.394ZM40.1104 60.219H42.9841C43.9847 60.219 44.6822 60.0726 45.0741 59.7771C45.466 59.4816 45.6698 58.977 45.6698 58.2579C45.6698 57.5388 45.4712 57.0734 45.0767 56.7727C44.6822 56.472 44.0317 56.3229 43.1043 56.3229H40.1182L40.1104 60.219Z" fill="#2F80ED"/>
<path d="M48.9589 62.1147V54.8926H50.6727V62.1304C50.6727 63.2234 50.9339 64.0296 51.4564 64.5491C51.9789 65.0686 52.7896 65.3301 53.8886 65.3336C54.9754 65.3336 55.7862 65.0721 56.3209 64.5491C56.8564 64.0262 57.1229 63.2182 57.1229 62.1409V54.8926H58.8471V62.1147C58.8471 63.6836 58.4117 64.8638 57.5409 65.6552C56.6701 66.4466 55.3882 66.8475 53.6953 66.858C52.1174 66.858 50.933 66.4632 50.1423 65.6735C49.3516 64.8838 48.9571 63.6976 48.9589 62.1147Z" fill="#2F80ED"/>
<path d="M60.4617 62.7004H62.118C62.1111 63.0831 62.1893 63.4625 62.347 63.8112C62.5047 64.1599 62.7379 64.4691 63.0297 64.7165C63.6228 65.2159 64.4118 65.4669 65.4019 65.4669C66.392 65.4669 67.1496 65.276 67.7139 64.8969C67.9778 64.7353 68.1947 64.5074 68.3433 64.2358C68.4918 63.9642 68.5666 63.6584 68.5604 63.3489C68.5604 62.4581 67.5023 61.7809 65.3862 61.3172L65.0936 61.2545C63.3781 60.8797 62.246 60.4622 61.6974 60.002C61.4185 59.7598 61.1988 59.4569 61.0552 59.1164C60.9117 58.776 60.848 58.4072 60.8692 58.0382C60.8571 57.5521 60.9632 57.0703 61.1785 56.6344C61.3938 56.1985 61.7117 55.8215 62.1049 55.5359C62.927 54.9048 64.0225 54.5902 65.3914 54.5919C66.7848 54.5919 67.882 54.9223 68.6832 55.5829C69.0803 55.9142 69.3966 56.3318 69.6081 56.804C69.8195 57.2762 69.9204 57.7904 69.9032 58.3076H68.2652C68.2574 57.964 68.1764 57.626 68.0278 57.3163C67.8791 57.0065 67.6661 56.732 67.403 56.5112C66.8806 56.0954 66.1778 55.8889 65.2791 55.8889C64.5697 55.8576 63.8672 56.0397 63.2623 56.4118C63.0299 56.5528 62.8382 56.7517 62.7058 56.9892C62.5735 57.2266 62.505 57.4944 62.5072 57.7663C62.5072 58.6675 63.5522 59.3395 65.6422 59.7823L66.3528 59.9392L66.5331 59.9784C67.8846 60.273 68.7807 60.5946 69.2213 60.9433C69.5552 61.1961 69.8239 61.5251 70.0051 61.9029C70.1848 62.2983 70.2741 62.7289 70.2663 63.1633C70.2832 63.6827 70.173 64.1984 69.9454 64.6655C69.7177 65.1326 69.3795 65.537 68.9601 65.8434C68.0893 66.5076 66.9102 66.8397 65.4228 66.8397C63.8884 66.8397 62.6945 66.4823 61.8411 65.7676C60.9877 65.0529 60.5279 64.0305 60.4617 62.7004Z" fill="#2F80ED"/>
<path d="M79.4676 66.5338L74.9689 54.8926H76.7454L80.3819 64.638L83.9088 54.8926H85.701L81.2597 66.5338H79.4676Z" fill="#2F80ED"/>
<path d="M86.6545 66.5338V54.8926H88.3709V66.5338H86.6545Z" fill="#2F80ED"/>
<path d="M90.6934 54.8927H95.5918C96.1777 54.8801 96.7637 54.9115 97.3448 54.9868C97.6946 55.0423 98.0344 55.1489 98.3532 55.3032C98.8597 55.5492 99.2823 55.9394 99.568 56.4249C99.8542 56.9419 99.9976 57.5259 99.9834 58.1167C100 58.6845 99.8472 59.2443 99.5445 59.7248C99.2216 60.1946 98.7671 60.5585 98.2383 60.7707C98.6519 60.8508 99.0229 61.0773 99.2833 61.4088C99.4888 61.7086 99.6185 62.2176 99.6725 62.9358L99.8188 64.8551C99.8274 65.1693 99.8865 65.4801 99.9939 65.7755C100.068 65.9643 100.211 66.1183 100.394 66.2069V66.5312H98.4107C98.2522 66.2888 98.1407 65.7702 98.0763 64.9753V64.9257L97.9744 63.4091C97.9169 62.6246 97.7367 62.1226 97.4336 61.8925C97.1306 61.6624 96.373 61.5447 95.1608 61.5447H92.3915V66.5312H90.6934V54.8927ZM92.3732 56.2602V60.2033H95.3071C96.3521 60.2033 97.1149 60.0438 97.5512 59.73C97.9875 59.4163 98.2069 58.8855 98.2069 58.1481C98.2069 57.4508 98.0014 56.9636 97.5904 56.6864C97.1793 56.4092 96.4182 56.2672 95.3071 56.2602H92.3732Z" fill="#2F80ED"/>
<path d="M104.707 66.5338V56.3073H100.72V54.8926H110.42V56.3073H106.434V66.5338H104.707Z" fill="#2F80ED"/>
<path d="M111.439 62.1147V54.8926H113.156V62.1304C113.156 63.2234 113.417 64.0296 113.939 64.5491C114.462 65.0686 115.272 65.3301 116.369 65.3336C117.456 65.3336 118.266 65.0721 118.801 64.5491C119.324 64.0262 119.603 63.2182 119.603 62.1409V54.8926H121.327V62.1147C121.327 63.6836 120.892 64.8638 120.021 65.6552C119.15 66.4466 117.868 66.8475 116.173 66.858C114.595 66.858 113.412 66.4632 112.623 65.6735C111.834 64.8838 111.439 63.6976 111.439 62.1147Z" fill="#2F80ED"/>
<path d="M121.811 66.5338L126.513 54.8926H128.407L133.11 66.5338H131.25L129.909 63.0561H124.946L123.598 66.5338H121.811ZM125.468 61.6964H129.408L127.451 56.5609L125.468 61.6964Z" fill="#2F80ED"/>
<path d="M133.972 66.5338V54.8926H135.704V65.0642H142V66.5338H133.972Z" fill="#2F80ED"/>
<path fill-rule="evenodd" clip-rule="evenodd" d="M41.6805 18.9495V20.3092L40.821 20.9891V28.2582H41.6805V29.5996L40.821 30.3501V35.2084H41.6805V36.5341L40.821 37.2505V41.5937L41.6805 43.0894V45.7408H0.0609741V43.126L0.957058 41.5127V37.3577L0.0609741 36.5733V35.3182H0.957058V30.2664L0.0609741 29.5133V28.368H0.957058V21.0257L0.0609741 20.3092V19.0567H2.20844V10.4017H2.92426V9.79245C2.92426 9.79245 0.81337 5.48325 5.32252 4.30136C5.34824 4.15875 5.36482 4.01464 5.37216 3.86991C5.27439 3.7826 5.19829 3.6737 5.14986 3.55184C5.10144 3.42997 5.08204 3.2985 5.0932 3.16783C5.10435 3.03716 5.14575 2.91089 5.21413 2.79901C5.2825 2.68714 5.37596 2.59274 5.48711 2.52329C5.5681 1.55058 5.64386 0.541265 5.64386 0.541265C5.64386 0.541265 5.72485 0.00261487 5.93907 0.00261487C6.1533 0.00261487 6.26041 0.541265 6.26041 0.541265L6.41193 2.54944C6.51261 2.62015 6.59658 2.7121 6.65791 2.8188C6.71924 2.92551 6.75645 3.04438 6.76691 3.16704C6.77737 3.28969 6.76083 3.41316 6.71846 3.52872C6.67608 3.64429 6.60891 3.74915 6.52166 3.83592L6.58697 4.33535C6.58697 4.33535 10.9524 5.15901 8.84155 9.67217V10.352H9.62529V18.9495H11.9765V12.9877L11.2241 12.3079V11.262C11.497 11.1886 11.7492 11.0528 11.9609 10.8655C12.1726 10.6781 12.338 10.4442 12.4442 10.1821H13.4108L14.0535 10.8985H17.8599L18.5391 10.2527H19.5292L20.1379 10.9325H21.5696L22.1783 10.216H23.286L23.8947 10.8541H27.6828L28.2654 10.1742H29.3757C29.4676 10.4351 29.6188 10.671 29.8174 10.8634C30.016 11.0558 30.2565 11.1994 30.52 11.2829V12.2504L29.8041 12.9302V18.994H32.1554V10.3651H32.8712V9.75584C32.8712 9.75584 30.6898 5.70812 35.1989 4.27782C35.2042 4.26998 35.2224 4.11309 35.246 3.85161C35.1578 3.76481 35.0898 3.65962 35.0469 3.54353C35.0039 3.42744 34.9871 3.30329 34.9976 3.17995C35.0081 3.0566 35.0456 2.93709 35.1075 2.82991C35.1694 2.72274 35.2541 2.63055 35.3557 2.5599C35.4393 1.54012 35.5203 0.46805 35.5203 0.46805C35.5203 0.46805 35.5359 0 35.8573 0C36.1786 0 36.1786 0.575257 36.1786 0.575257L36.3092 2.5259C36.4217 2.5963 36.5159 2.69238 36.584 2.80627C36.6522 2.92017 36.6924 3.04861 36.7013 3.18107C36.7102 3.31352 36.6876 3.44621 36.6354 3.56823C36.5831 3.69025 36.5027 3.79812 36.4007 3.88299L36.4294 4.33535C36.4294 4.33535 41.0352 5.12241 38.7807 9.70878C38.8538 9.77938 38.7807 10.3886 38.7807 10.3886H39.4024V18.9495H41.6805ZM39.4965 20.3484V42.0513L40.3925 43.4241V44.5877H1.38549V43.3718L2.245 42.0461V20.3432H3.56953V11.7143H4.28535V9.20674C4.0865 8.99902 3.9326 8.75248 3.83326 8.48254C3.73392 8.21259 3.69127 7.92504 3.70799 7.63785C3.69792 7.34842 3.74618 7.05992 3.84989 6.78955C3.9536 6.51918 4.11065 6.27248 4.31166 6.06416C4.51267 5.85584 4.75353 5.69017 5.01989 5.57702C5.28624 5.46386 5.57263 5.40555 5.86199 5.40555C6.15134 5.40555 6.43773 5.46386 6.70409 5.57702C6.97044 5.69017 7.21131 5.85584 7.41232 6.06416C7.61333 6.27248 7.77037 6.51918 7.87409 6.78955C7.9778 7.05992 8.02606 7.34842 8.01599 7.63785C8.03721 7.92371 7.99869 8.21085 7.90289 8.48097C7.80708 8.75109 7.65608 8.99827 7.45952 9.20674V11.6777H8.21976V20.3458H13.2305V12.789L12.8726 12.0726L13.6955 12.2138H27.8944L28.7905 11.9288L28.4665 12.789V20.3432H33.4799V11.7143H34.2323V9.20674C33.83 8.80406 33.7098 8.25233 33.7098 7.63785C33.6997 7.34842 33.748 7.05992 33.8517 6.78955C33.9554 6.51918 34.1125 6.27248 34.3135 6.06416C34.5145 5.85584 34.7553 5.69017 35.0217 5.57702C35.2881 5.46386 35.5744 5.40555 35.8638 5.40555C36.1532 5.40555 36.4395 5.46386 36.7059 5.57702C36.9723 5.69017 37.2131 5.85584 37.4141 6.06416C37.6151 6.27248 37.7722 6.51918 37.8759 6.78955C37.9796 7.05992 38.0279 7.34842 38.0178 7.63785C38.0263 7.92864 37.9747 8.21805 37.8664 8.48799C37.7581 8.75794 37.5953 9.00262 37.3882 9.20674V11.6411H38.1719V20.3484H39.4965Z" fill="#2F80ED"/>
</svg>
