<svg width="166" height="68" viewBox="0 0 166 68" fill="none" xmlns="http://www.w3.org/2000/svg">
<path d="M51.6686 25.1017V23.418H48.8395V12.8379H48.0707C48.0707 12.8379 48.1585 12.0867 48.0707 11.9971C50.8698 6.33144 45.1367 5.35622 45.1367 5.35622L45.1003 4.79713C45.2267 4.69217 45.3263 4.55892 45.3911 4.40826C45.4559 4.2576 45.4841 4.09379 45.4732 3.93023C45.4623 3.76667 45.4128 3.60798 45.3286 3.46714C45.2445 3.3263 45.1281 3.20729 44.9889 3.11984L44.8262 0.714874C44.8262 0.714874 44.8262 0.0064016 44.4257 0.0064016C44.0252 0.0064016 44.0273 0.582569 44.0273 0.582569C44.0273 0.582569 43.9245 1.90989 43.8239 3.14331C43.6982 3.23111 43.5933 3.34531 43.5167 3.47788C43.4401 3.61045 43.3936 3.75816 43.3806 3.91057C43.3675 4.06298 43.3882 4.2164 43.4411 4.36C43.494 4.50359 43.5779 4.63387 43.6868 4.74164C43.6763 4.91757 43.6563 5.09281 43.6269 5.2666C38.0287 7.03778 40.74 12.0398 40.74 12.0398V12.793H39.8512V23.4628H36.9193V15.9812L37.8081 15.1404V13.9454C37.4806 13.8421 37.1816 13.6644 36.9348 13.4263C36.688 13.1881 36.5002 12.8961 36.3861 12.5733H35.009L34.298 13.414H29.5864L28.8304 12.6181H27.4534L26.6974 13.5037H24.922L24.1639 12.665H22.9196L22.0758 13.4631H17.3642L16.5633 12.5775H15.364C15.2346 12.8995 15.0318 13.1871 14.7716 13.4175C14.5114 13.6479 14.201 13.8147 13.8648 13.9048V15.1852L14.7986 16.026V23.418H11.8667V12.7952H10.8858V11.9416C13.5072 6.36558 8.08674 5.34555 8.08674 5.34555L8.03534 4.73097C8.1407 4.62261 8.22127 4.49281 8.27153 4.35049C8.32179 4.20817 8.34054 4.0567 8.3265 3.90647C8.31246 3.75625 8.26596 3.61083 8.1902 3.4802C8.11443 3.34958 8.01119 3.23683 7.88757 3.14971L7.67341 0.665793C7.67341 0.665793 7.53849 0 7.27293 0C7.00737 0 6.91742 0.665793 6.91742 0.665793C6.91742 0.665793 6.82105 1.91416 6.72253 3.11557C6.57162 3.20944 6.44708 3.33991 6.36056 3.4948C6.27404 3.64968 6.22837 3.8239 6.22782 4.00116C6.23196 4.14839 6.26753 4.29304 6.33215 4.4255C6.39677 4.55797 6.48897 4.67519 6.6026 4.76938C6.59223 4.94907 6.57077 5.12795 6.53835 5.30501C0.940169 6.76463 3.56151 12.0782 3.56151 12.0782V12.8293H2.66417V23.5482H0V25.0974L1.10936 25.983V35.0715H0V36.4885L1.10936 37.4189V43.65H0V45.1993L1.10936 46.1681V51.3045L0 53.2955V56.5284H51.6686V53.2549L50.5978 51.3963V46.04L51.6686 45.1544V43.5177H50.5978V37.4957L51.6686 36.5674V34.9285H50.5978V25.9425L51.6686 25.1017ZM50.0774 55.1157H1.64262V53.6092L2.71343 51.9724V25.1444H4.35391V14.4746H5.24268V11.3846C4.73297 10.8981 4.52523 10.2174 4.52523 9.46408C4.52523 8.75663 4.80728 8.07816 5.30932 7.57792C5.81135 7.07767 6.49227 6.79664 7.20225 6.79664C7.91224 6.79664 8.59315 7.07767 9.09519 7.57792C9.59723 8.07816 9.87927 8.75663 9.87927 9.46408C9.87927 10.2216 9.69724 10.9024 9.18753 11.3846V14.4383H10.132V25.1508H16.3534V15.8041L15.9079 14.9185L16.9295 15.0956H34.5678L35.6793 14.7413L35.2788 15.8083V25.1486H41.4895V14.4789H42.4233V11.3846C41.9136 10.8981 41.7658 10.2174 41.7658 9.46408C41.7658 8.75663 42.0478 8.07816 42.5499 7.57792C43.0519 7.07767 43.7328 6.79664 44.4428 6.79664C45.1528 6.79664 45.8337 7.07767 46.3358 7.57792C46.8378 8.07816 47.1198 8.75663 47.1198 9.46408C47.1272 9.82031 47.0617 10.1743 46.9273 10.5045C46.7929 10.8347 46.5924 11.1341 46.3381 11.3846V14.3935H47.3147V25.1508H48.9595V51.9724L50.0688 53.654L50.0774 55.1157Z" fill="#2F80ED"/>
<path d="M55.3865 44.6274V38.7526H59.5005V39.7662H56.5836V41.0978H59.1407V42.1178H56.5836V44.6188L55.3865 44.6274Z" fill="#2F80ED"/>
<path d="M60.3315 44.6274V38.7526H61.5436V44.6274H60.3315Z" fill="#2F80ED"/>
<path d="M62.5523 41.6868C62.5523 40.7393 62.8114 39.9867 63.3297 39.4291C63.8964 38.8912 64.6491 38.5911 65.4317 38.5911C66.2144 38.5911 66.967 38.8912 67.5337 39.4291C68.0534 39.9867 68.314 40.7386 68.3154 41.6846C68.3168 42.6307 68.0563 43.3833 67.5337 43.9424C66.9673 44.4807 66.2145 44.7811 65.4317 44.7811C64.6489 44.7811 63.8962 44.4807 63.3297 43.9424C62.8114 43.3932 62.5523 42.6414 62.5523 41.6868ZM63.788 41.6868C63.7535 42.223 63.9047 42.7548 64.2163 43.1933C64.3619 43.3708 64.5472 43.5117 64.7574 43.6047C64.9675 43.6977 65.1967 43.7403 65.4264 43.729C65.6576 43.7406 65.8885 43.6983 66.1004 43.6053C66.3123 43.5123 66.4995 43.3712 66.6471 43.1933C66.9313 42.7423 67.082 42.2204 67.082 41.6878C67.082 41.1552 66.9313 40.6334 66.6471 40.1823C66.4925 40.0133 66.3041 39.8785 66.094 39.7865C65.8838 39.6946 65.6567 39.6476 65.4272 39.6486C65.1977 39.6496 64.971 39.6986 64.7617 39.7924C64.5524 39.8861 64.3651 40.0226 64.2121 40.193C63.9337 40.5451 63.7837 41.0466 63.7837 41.6868H63.788Z" fill="#2F80ED"/>
<path d="M74.4083 42.6086C74.3985 42.9134 74.3245 43.2126 74.1909 43.4869C74.0573 43.7612 73.8672 44.0044 73.633 44.2006C73.1099 44.6125 72.4551 44.8225 71.7891 44.7917C70.9167 44.7917 70.2386 44.52 69.7546 43.9765C69.2706 43.4331 69.0286 42.6698 69.0286 41.6868C69.0286 40.6909 69.2756 39.9256 69.7696 39.3906C70.2636 38.8557 70.9731 38.5897 71.8983 38.5925C72.6493 38.5925 73.244 38.7754 73.6823 39.141C73.9039 39.3349 74.0823 39.5729 74.2059 39.8398C74.3294 40.1067 74.3955 40.3964 74.3997 40.6902H73.2068C73.1764 40.3936 73.0303 40.1208 72.7999 39.9305C72.5393 39.7444 72.2227 39.6526 71.9026 39.6702C71.6736 39.6551 71.4443 39.6938 71.233 39.7831C71.0217 39.8725 70.8344 40.0099 70.6862 40.1845C70.4078 40.5259 70.2686 41.0238 70.2686 41.6782C70.2686 42.3184 70.4078 42.8114 70.684 43.1592C70.9424 43.4451 71.2966 43.6274 71.6802 43.6718C72.0638 43.7162 72.4505 43.6197 72.7678 43.4003C73.0123 43.194 73.1741 42.9069 73.224 42.5916L74.4083 42.6086Z" fill="#2F80ED"/>
<path d="M75.3763 44.6274V38.7526H78.2354C78.8778 38.7526 79.354 38.8899 79.6638 39.1644C79.9722 39.4376 80.1286 39.8558 80.1286 40.4192C80.1397 40.734 80.061 41.0456 79.9015 41.3176C79.7548 41.5539 79.5262 41.7285 79.2591 41.8084C79.4859 41.875 79.6803 42.0223 79.8052 42.2224C79.9345 42.4934 79.9983 42.7909 79.9915 43.0909L80.0172 43.7866V43.8207C80.0172 44.1707 80.1007 44.3841 80.2442 44.4609V44.6402H78.9164C78.8683 44.544 78.8351 44.4411 78.8179 44.335C78.7931 44.194 78.7788 44.0513 78.775 43.9082L78.7601 43.2915C78.7756 43.0282 78.7 42.7676 78.5459 42.5532C78.3565 42.4038 78.1157 42.3348 77.8756 42.3611H76.5906V44.6466L75.3763 44.6274ZM76.5885 41.3219H78.0148C78.2569 41.3412 78.4981 41.2747 78.6958 41.1341C78.7728 41.0572 78.8319 40.9644 78.8689 40.8623C78.906 40.7601 78.92 40.6511 78.91 40.543C78.9171 40.4367 78.9017 40.3301 78.8649 40.2301C78.828 40.1301 78.7704 40.0389 78.6958 39.9625C78.5151 39.8168 78.2849 39.7465 78.0533 39.7662H76.5713L76.5885 41.3219Z" fill="#2F80ED"/>
<path d="M81.1929 38.7377H82.4158V42.423C82.3852 42.7761 82.4816 43.1286 82.6878 43.4174C82.7991 43.5286 82.9334 43.6143 83.0813 43.6685C83.2293 43.7227 83.3873 43.744 83.5444 43.7311C83.7043 43.7451 83.8654 43.7246 84.0166 43.6708C84.1678 43.617 84.3055 43.5313 84.4203 43.4195C84.6278 43.1304 84.725 42.7771 84.6945 42.423V38.7377H85.9066V42.5532C85.9066 43.2744 85.7046 43.8278 85.3006 44.2134C84.8958 44.5975 84.3133 44.7917 83.553 44.7917C82.7927 44.7917 82.2016 44.5996 81.7947 44.2155C81.3878 43.8314 81.1844 43.2766 81.1844 42.5532L81.1929 38.7377Z" fill="#2F80ED"/>
<path d="M86.6433 44.6274V43.6073L89.8558 39.8174H86.699V38.7505H91.3142V39.7662L88.1018 43.5583H91.2457V44.6252L86.6433 44.6274Z" fill="#2F80ED"/>
<path d="M55.9968 7.55419V0.964546H57.3139L58.8794 5.62297C59.0222 6.05829 59.1279 6.38336 59.1964 6.59818C59.2721 6.35918 59.3891 6.00708 59.5476 5.54188L61.1303 0.958144H62.3082V7.55419H61.4644V2.03793L59.5369 7.55419H58.7467L56.8342 1.94403V7.55419H55.9968Z" fill="#2F80ED"/>
<path d="M63.621 1.89495V0.964546H64.4262V1.89495H63.621ZM63.621 7.55419V2.78054H64.4262V7.55419H63.621Z" fill="#2F80ED"/>
<path d="M65.6684 7.55419V2.78054H66.4008V3.45914C66.5629 3.20578 66.7893 2.99956 67.057 2.8613C67.3248 2.72303 67.6244 2.65764 67.9256 2.67171C68.1984 2.66844 68.4689 2.72148 68.7202 2.82749C68.9355 2.91014 69.1237 3.05045 69.2641 3.23294C69.3895 3.413 69.4756 3.61728 69.5168 3.83258C69.5541 4.0926 69.5692 4.35531 69.5618 4.61787V7.55419H68.7501V4.64988C68.761 4.40022 68.7291 4.15054 68.6559 3.91154C68.5913 3.74673 68.4728 3.60841 68.3197 3.51889C68.1483 3.41927 67.9526 3.36903 67.7543 3.37378C67.4244 3.36747 67.1042 3.48475 66.857 3.70241C66.6064 3.9158 66.4822 4.34259 66.4822 4.9465V7.55419H65.6684Z" fill="#2F80ED"/>
<path d="M70.8125 1.89495V0.964546H71.6242V1.89495H70.8125ZM70.8125 7.55419V2.78054H71.6242V7.55419H70.8125Z" fill="#2F80ED"/>
<path d="M72.5344 6.12871L73.3375 6.00281C73.3642 6.28717 73.499 6.55059 73.7144 6.73902C73.9605 6.92308 74.2639 7.01454 74.5711 6.99723C74.8656 7.02001 75.1589 6.93922 75.3999 6.7689C75.4824 6.70661 75.5496 6.62637 75.5964 6.53429C75.6432 6.44222 75.6682 6.34073 75.6697 6.23754C75.6705 6.152 75.649 6.06773 75.6073 5.99293C75.5656 5.91813 75.5052 5.85537 75.432 5.81075C75.1671 5.68648 74.8881 5.59476 74.601 5.53761C74.178 5.44375 73.7639 5.31381 73.3632 5.14923C73.1484 5.05146 72.9669 4.89353 72.8406 4.6947C72.722 4.50228 72.6603 4.28034 72.6629 4.05451C72.6605 3.84837 72.7106 3.64499 72.8085 3.46341C72.904 3.28188 73.0403 3.12485 73.2068 3.00461C73.3654 2.89794 73.5405 2.81793 73.7251 2.76774C73.9527 2.70231 74.1886 2.66997 74.4254 2.67171C74.7624 2.6646 75.0979 2.71958 75.4149 2.83389C75.6614 2.91318 75.8799 3.06131 76.0445 3.26068C76.1942 3.48256 76.2903 3.73604 76.325 4.00116L75.5305 4.10786C75.5054 3.8832 75.3932 3.6772 75.2178 3.53383C75.0047 3.38092 74.7454 3.30559 74.4832 3.32043C74.2049 3.29672 73.9262 3.36093 73.6866 3.50395C73.6154 3.551 73.5566 3.61425 73.5149 3.68847C73.4732 3.76269 73.4498 3.84574 73.4467 3.93074C73.4456 4.03321 73.4804 4.13284 73.5452 4.21242C73.628 4.31059 73.7361 4.38438 73.8579 4.42582C73.9393 4.45569 74.177 4.52611 74.5753 4.63921C74.9838 4.74536 75.3851 4.87722 75.7768 5.034C75.9921 5.12309 76.1777 5.27105 76.3122 5.46079C76.4467 5.66662 76.514 5.90887 76.5049 6.15432C76.5038 6.4259 76.4218 6.69103 76.2694 6.91614C76.0996 7.16274 75.8615 7.35478 75.584 7.46884C75.265 7.60283 74.9215 7.66897 74.5753 7.66303C73.9514 7.66303 73.4767 7.53428 73.1512 7.27678C72.8092 6.98401 72.5893 6.5746 72.5344 6.12871Z" fill="#2F80ED"/>
<path d="M79.2526 6.83078L79.3683 7.54566C79.167 7.58965 78.9618 7.61324 78.7558 7.61608C78.5192 7.62842 78.2834 7.58069 78.0705 7.47737C77.9191 7.39561 77.7987 7.26669 77.7278 7.11033C77.6409 6.80023 77.6068 6.47779 77.6271 6.15645V3.41006H77.0318V2.76987H77.6271V1.59833L78.4345 1.11179V2.78054H79.2526V3.42073H78.4345V6.20127C78.4254 6.35054 78.4398 6.50032 78.4774 6.64513C78.5069 6.71112 78.5563 6.76631 78.6187 6.80304C78.7041 6.84623 78.7994 6.86611 78.895 6.86066C79.0147 6.85796 79.1341 6.84798 79.2526 6.83078Z" fill="#2F80ED"/>
<path d="M83.326 6.01561L84.1655 6.12018C84.0564 6.57154 83.7966 6.97258 83.4288 7.25758C83.0293 7.53941 82.5472 7.68125 82.0581 7.66089C81.7508 7.67715 81.4435 7.62852 81.1564 7.5182C80.8693 7.40787 80.6088 7.23834 80.392 7.02071C79.9808 6.59392 79.7752 5.99072 79.7752 5.21111C79.7752 4.40875 79.9829 3.78563 80.3984 3.34177C80.6039 3.12194 80.8545 2.94871 81.1331 2.83383C81.4117 2.71896 81.7118 2.66512 82.0132 2.67598C82.3065 2.66634 82.5985 2.71967 82.8694 2.83233C83.1402 2.94499 83.3836 3.11437 83.583 3.32897C83.9877 3.75576 84.1912 4.3746 84.1912 5.16203C84.1912 5.20898 84.1912 5.28153 84.1912 5.37543H80.6147C80.6127 5.81764 80.7709 6.24573 81.0602 6.58111C81.1877 6.71854 81.3428 6.82759 81.5156 6.90114C81.6883 6.97468 81.8746 7.01107 82.0624 7.0079C82.3356 7.01534 82.6035 6.93284 82.8248 6.77317C83.0632 6.57544 83.2376 6.31187 83.326 6.01561ZM80.6597 4.7075H83.3345C83.3251 4.38292 83.2184 4.06856 83.0283 3.80484C82.9081 3.65484 82.7547 3.53461 82.58 3.45353C82.4054 3.37246 82.2143 3.33274 82.0217 3.3375C81.8484 3.33197 81.6758 3.36145 81.5142 3.42416C81.3526 3.48687 81.2055 3.58152 81.0816 3.70241C80.8162 3.97075 80.6651 4.33082 80.6597 4.7075ZM81.5335 2.1873L82.1352 0.928269H83.2061L82.2016 2.1873H81.5335Z" fill="#2F80ED"/>
<path d="M85.1742 7.55419V2.78054H85.9066V3.50395C86.028 3.24603 86.2041 3.01742 86.4228 2.83389C86.5751 2.72735 86.757 2.67067 86.9432 2.67171C87.2405 2.67911 87.5298 2.76929 87.7784 2.93205L87.4979 3.6832C87.3191 3.5719 87.1132 3.5114 86.9025 3.50822C86.7298 3.5066 86.5615 3.56298 86.4249 3.66827C86.28 3.78012 86.1744 3.93472 86.1229 4.10999C86.0295 4.41638 85.9833 4.73512 85.9859 5.05534V7.55419H85.1742Z" fill="#2F80ED"/>
<path d="M88.2645 1.89495V0.964546H89.0762V1.89495H88.2645ZM88.2645 7.55419V2.78054H89.0762V7.55419H88.2645Z" fill="#2F80ED"/>
<path d="M90.01 5.1663C90.01 4.28284 90.257 3.62843 90.751 3.20306C91.1679 2.84789 91.7017 2.65866 92.2501 2.67171C92.5492 2.66004 92.8475 2.71099 93.1256 2.82126C93.4037 2.93152 93.6556 3.09866 93.8649 3.31189C94.2932 3.73868 94.4924 4.33619 94.4924 5.09588C94.5161 5.5938 94.4214 6.09027 94.2161 6.54483C94.0352 6.89221 93.7539 7.17762 93.4087 7.36427C93.0599 7.5588 92.6669 7.66093 92.2672 7.66089C91.9663 7.67407 91.666 7.62386 91.386 7.51355C91.1059 7.40324 90.8523 7.2353 90.6417 7.02071C90.222 6.59107 90.0114 5.97293 90.01 5.1663ZM90.8452 5.1663C90.8452 5.77874 90.9801 6.23328 91.2478 6.54057C91.3731 6.68435 91.5278 6.79966 91.7017 6.87868C91.8755 6.9577 92.0644 6.9986 92.2554 6.9986C92.4465 6.9986 92.6354 6.9577 92.8092 6.87868C92.9831 6.79966 93.1378 6.68435 93.2631 6.54057C93.5315 6.23328 93.6657 5.76736 93.6657 5.14283C93.6657 4.55101 93.5308 4.10359 93.2609 3.80057C93.1355 3.65745 92.9808 3.54274 92.8072 3.46414C92.6336 3.38555 92.4451 3.34488 92.2544 3.34488C92.0637 3.34488 91.8752 3.38555 91.7016 3.46414C91.528 3.54274 91.3733 3.65745 91.2478 3.80057C90.9808 4.10075 90.8466 4.55599 90.8452 5.1663Z" fill="#2F80ED"/>
<path d="M101.127 7.55419V6.95029C100.987 7.17695 100.789 7.36232 100.554 7.48724C100.318 7.61217 100.053 7.67212 99.7864 7.66089C99.4118 7.66277 99.045 7.55358 98.7328 7.3472C98.408 7.13214 98.1505 6.83045 97.9896 6.47655C97.8056 6.06906 97.7149 5.62586 97.7241 5.1791C97.7189 4.73591 97.8004 4.29596 97.9639 3.88379C98.1045 3.51418 98.3595 3.19877 98.6921 2.98327C99.0104 2.77651 99.3829 2.66812 99.7629 2.67171C100.031 2.66745 100.296 2.72978 100.534 2.8531C100.752 2.96716 100.94 3.13006 101.084 3.32897V0.964546H101.892V7.55419H101.127ZM98.5572 5.17057C98.5572 5.78372 98.6864 6.2411 98.9448 6.5427C99.053 6.68278 99.1917 6.79649 99.3505 6.87524C99.5093 6.95399 99.684 6.99571 99.8614 6.99723C100.035 6.99864 100.206 6.96098 100.362 6.88707C100.519 6.81315 100.657 6.70491 100.765 6.57044C101.014 6.28591 101.138 5.8449 101.138 5.24739C101.138 4.5944 101.011 4.11497 100.759 3.80911C100.649 3.66584 100.508 3.54984 100.346 3.47022C100.184 3.39061 100.006 3.34956 99.825 3.35031C99.6504 3.34865 99.4779 3.3875 99.321 3.4638C99.1642 3.54011 99.0273 3.65175 98.9212 3.7899C98.6814 4.0787 98.5607 4.53892 98.5593 5.17057H98.5572Z" fill="#2F80ED"/>
<path d="M106.282 6.96522C106.025 7.19187 105.732 7.37433 105.415 7.50511C105.128 7.6106 104.825 7.66339 104.519 7.66089C104.081 7.69009 103.647 7.55289 103.305 7.27678C103.166 7.15428 103.056 7.00291 102.982 6.83332C102.908 6.66372 102.872 6.48003 102.877 6.29516C102.877 6.0784 102.931 5.86499 103.032 5.67347C103.134 5.48195 103.282 5.31811 103.461 5.19618C103.64 5.07377 103.837 4.98215 104.046 4.92516C104.284 4.86902 104.525 4.82839 104.768 4.80353C105.259 4.75838 105.745 4.66473 106.218 4.52398C106.218 4.41301 106.218 4.34259 106.218 4.31058C106.231 4.1849 106.217 4.05783 106.177 3.93786C106.138 3.81789 106.072 3.70779 105.986 3.61492C105.722 3.41331 105.393 3.31535 105.061 3.33964C104.762 3.31501 104.462 3.38521 104.205 3.54023C103.993 3.72351 103.851 3.97359 103.802 4.2487L103.007 4.13987C103.061 3.84264 103.183 3.562 103.365 3.32043C103.558 3.09751 103.81 2.93392 104.093 2.84883C104.444 2.73141 104.812 2.6744 105.181 2.68024C105.52 2.6698 105.858 2.71892 106.179 2.82535C106.395 2.89513 106.589 3.01937 106.742 3.18599C106.87 3.34674 106.956 3.53554 106.995 3.73655C107.03 3.98395 107.043 4.23378 107.036 4.48344V5.56108C107.023 6.03755 107.041 6.51434 107.087 6.9887C107.125 7.19093 107.197 7.38515 107.301 7.56273H106.445C106.355 7.37493 106.3 7.17252 106.282 6.96522ZM106.216 5.15776C105.786 5.30957 105.341 5.41195 104.888 5.46292C104.647 5.48919 104.409 5.54363 104.181 5.6251C104.05 5.67832 103.938 5.76981 103.86 5.88758C103.767 6.03175 103.729 6.20454 103.753 6.37425C103.778 6.54396 103.863 6.69922 103.993 6.81158C104.198 6.96815 104.454 7.04409 104.712 7.02497C105.004 7.0276 105.292 6.95404 105.547 6.81158C105.781 6.68633 105.968 6.49058 106.083 6.25248C106.184 5.99543 106.23 5.71966 106.216 5.44372V5.15776Z" fill="#2F80ED"/>
<path d="M110.668 5.43731L111.493 5.36476C111.518 5.65266 111.611 5.93053 111.765 6.17566C111.933 6.40622 112.164 6.58394 112.431 6.68781C112.752 6.82233 113.097 6.88917 113.446 6.88413C113.747 6.89016 114.047 6.83948 114.33 6.73476C114.556 6.65826 114.754 6.51725 114.9 6.3293C115.023 6.16627 115.089 5.96772 115.088 5.76381C115.092 5.56864 115.029 5.37809 114.908 5.22392C114.748 5.0426 114.542 4.9077 114.311 4.8334C113.925 4.70656 113.532 4.59972 113.135 4.51331C112.693 4.42465 112.262 4.28649 111.85 4.10146C111.564 3.96376 111.32 3.75231 111.143 3.48901C110.988 3.24307 110.907 2.95792 110.91 2.66744C110.911 2.33543 111.01 2.01102 111.195 1.7349C111.398 1.43566 111.688 1.20554 112.026 1.07551C112.412 0.925813 112.824 0.853303 113.238 0.862117C113.683 0.84949 114.126 0.926424 114.54 1.08832C114.89 1.22763 115.188 1.46949 115.397 1.78185C115.6 2.09159 115.712 2.45134 115.722 2.82109L114.883 2.88297C114.874 2.70319 114.828 2.52706 114.75 2.36504C114.671 2.20302 114.56 2.0584 114.424 1.93976C114.089 1.70332 113.682 1.59018 113.272 1.61967C112.743 1.61967 112.358 1.71783 112.116 1.90989C112.004 1.98991 111.913 2.09497 111.85 2.21656C111.787 2.33816 111.753 2.47288 111.752 2.60982C111.749 2.72011 111.77 2.82967 111.815 2.93073C111.859 3.03179 111.925 3.12185 112.009 3.19453C112.178 3.34604 112.617 3.50395 113.33 3.664C113.829 3.76222 114.319 3.90506 114.793 4.09079C115.136 4.22989 115.433 4.46292 115.649 4.76298C115.835 5.0398 115.932 5.36673 115.926 5.69979C115.927 6.05161 115.824 6.39599 115.63 6.68994C115.414 7.00811 115.109 7.25711 114.754 7.40695C114.353 7.58447 113.918 7.67259 113.48 7.66516C112.968 7.68066 112.458 7.59208 111.981 7.40482C111.592 7.24414 111.26 6.97144 111.028 6.62166C110.798 6.26875 110.673 5.85806 110.668 5.43731Z" fill="#2F80ED"/>
<path d="M120.149 6.96522C119.892 7.19187 119.599 7.37433 119.282 7.50511C118.995 7.6106 118.692 7.66339 118.386 7.66089C117.947 7.69009 117.514 7.55289 117.172 7.27678C117.033 7.15428 116.923 7.00291 116.849 6.83332C116.775 6.66372 116.739 6.48003 116.744 6.29516C116.744 6.07878 116.796 5.86562 116.897 5.67413C116.999 5.48264 117.145 5.31859 117.324 5.19618C117.502 5.07623 117.699 4.9868 117.907 4.93157C118.144 4.87542 118.385 4.83479 118.628 4.80993C119.12 4.76478 119.605 4.67114 120.078 4.53038C120.078 4.41942 120.078 4.349 120.078 4.31699C120.092 4.19131 120.078 4.06423 120.038 3.94426C119.998 3.82429 119.933 3.71419 119.847 3.62132C119.583 3.41971 119.254 3.32175 118.922 3.34604C118.622 3.32141 118.322 3.39161 118.065 3.54663C117.854 3.72991 117.711 3.97999 117.663 4.2551L116.896 4.142C116.949 3.84478 117.072 3.56414 117.253 3.32257C117.442 3.10119 117.689 2.93704 117.967 2.84883C118.317 2.73141 118.685 2.6744 119.055 2.68024C119.393 2.6698 119.731 2.71892 120.053 2.82535C120.268 2.89513 120.462 3.01937 120.616 3.18599C120.743 3.34674 120.83 3.53554 120.869 3.73655C120.903 3.98395 120.917 4.23378 120.909 4.48344V5.56108C120.897 6.03755 120.914 6.51434 120.961 6.9887C120.998 7.19093 121.071 7.38515 121.175 7.56273H120.318C120.226 7.37535 120.169 7.17293 120.149 6.96522ZM120.083 5.15776C119.653 5.30957 119.208 5.41195 118.755 5.46292C118.514 5.48919 118.276 5.54363 118.048 5.6251C117.917 5.67832 117.805 5.76981 117.727 5.88758C117.634 6.03175 117.596 6.20454 117.62 6.37425C117.645 6.54396 117.73 6.69922 117.86 6.81158C118.065 6.96815 118.321 7.04409 118.579 7.02497C118.871 7.0276 119.159 6.95404 119.414 6.81158C119.648 6.68633 119.835 6.49058 119.95 6.25248C120.051 5.99543 120.097 5.71966 120.083 5.44372V5.15776Z" fill="#2F80ED"/>
<path d="M125.302 7.55419V6.85212C125.139 7.1058 124.914 7.31351 124.648 7.45517C124.381 7.59684 124.083 7.6677 123.781 7.66089C123.508 7.66329 123.238 7.60801 122.989 7.49871C122.774 7.4136 122.586 7.27378 122.443 7.09326C122.318 6.91311 122.232 6.7088 122.192 6.49362C122.153 6.24379 122.136 5.99097 122.143 5.7382V2.78054H122.954V5.42664C122.946 5.71206 122.962 5.9977 123.004 6.28022C123.045 6.48051 123.158 6.65923 123.321 6.78384C123.501 6.90858 123.716 6.97219 123.935 6.96522C124.177 6.96584 124.414 6.90092 124.621 6.77744C124.829 6.66387 124.992 6.48224 125.081 6.26315C125.185 5.96357 125.23 5.64716 125.216 5.33062V2.76987H126.028V7.55419H125.302ZM123.588 2.1873L124.19 0.928269H125.261L124.267 2.1873H123.588Z" fill="#2F80ED"/>
<path d="M130.407 7.55419V6.95029C130.268 7.17695 130.07 7.36232 129.834 7.48724C129.598 7.61217 129.333 7.67212 129.067 7.66089C128.693 7.66312 128.326 7.55388 128.015 7.3472C127.689 7.1328 127.431 6.83097 127.27 6.47655C127.088 6.06857 126.998 5.62561 127.006 5.1791C127.001 4.73605 127.081 4.2961 127.244 3.88379C127.384 3.51926 127.635 3.20741 127.962 2.9918C128.28 2.78505 128.652 2.67666 129.032 2.68024C129.29 2.67523 129.544 2.7324 129.774 2.84687C130.004 2.96134 130.203 3.12969 130.354 3.3375V0.964546H131.161V7.55419H130.407ZM127.837 5.17057C127.837 5.78372 127.967 6.2411 128.227 6.5427C128.335 6.68273 128.473 6.79644 128.632 6.87521C128.79 6.95397 128.965 6.9957 129.142 6.99723C129.315 6.99881 129.487 6.96123 129.644 6.88732C129.801 6.81341 129.939 6.70508 130.047 6.57044C130.294 6.28591 130.418 5.8449 130.418 5.24739C130.418 4.5944 130.292 4.11497 130.039 3.80911C129.93 3.66398 129.789 3.54616 129.626 3.46503C129.464 3.38389 129.285 3.34169 129.103 3.34177C128.929 3.34044 128.756 3.37944 128.599 3.45572C128.442 3.53199 128.306 3.64346 128.199 3.78136C127.961 4.07585 127.841 4.53892 127.839 5.17057H127.837Z" fill="#2F80ED"/>
<path d="M135.716 6.01561L136.556 6.12018C136.447 6.57131 136.188 6.97236 135.821 7.25758C135.423 7.53761 134.944 7.67934 134.457 7.66089C134.15 7.67701 133.843 7.62832 133.555 7.51801C133.268 7.40769 133.008 7.23823 132.791 7.02071C132.38 6.59392 132.176 5.98787 132.176 5.21111C132.176 4.43435 132.39 3.78563 132.797 3.34177C133.003 3.12216 133.254 2.94908 133.532 2.83423C133.811 2.71937 134.111 2.6654 134.412 2.67598C134.705 2.6662 134.997 2.71946 135.268 2.83213C135.539 2.94481 135.783 3.11426 135.982 3.32897C136.389 3.75576 136.592 4.3746 136.592 5.16203C136.592 5.20898 136.592 5.28153 136.592 5.37543H133.005C133.004 5.81792 133.163 6.24603 133.453 6.58111C133.58 6.71827 133.735 6.82716 133.907 6.9007C134.079 6.97424 134.265 7.01076 134.453 7.0079C134.726 7.01566 134.994 6.93313 135.215 6.77317C135.455 6.57667 135.63 6.31264 135.716 6.01561ZM133.05 4.7075H135.725C135.717 4.38256 135.611 4.06764 135.419 3.80484C135.299 3.65459 135.145 3.53418 134.971 3.45308C134.796 3.37198 134.605 3.33241 134.412 3.3375C134.239 3.33197 134.066 3.36145 133.905 3.42416C133.743 3.48687 133.596 3.58152 133.472 3.70241C133.208 3.97185 133.057 4.33122 133.05 4.7075Z" fill="#2F80ED"/>
<path d="M55.9326 66.9229V61.5155H59.5947V62.1557H56.6522V63.8308H59.1985V64.471H56.6522V66.9272L55.9326 66.9229Z" fill="#2F80ED"/>
<path d="M60.445 62.2794V61.5155H61.111V62.2794H60.445ZM60.445 66.9229V63.0071H61.111V66.9229H60.445Z" fill="#2F80ED"/>
<path d="M61.8777 64.9639C61.8777 64.2384 62.0812 63.7028 62.4859 63.3528C62.8307 63.0633 63.271 62.9112 63.7216 62.926C63.9672 62.9174 64.2119 62.9599 64.4401 63.0506C64.6683 63.1413 64.8751 63.2784 65.0473 63.4531C65.2255 63.6509 65.3627 63.8819 65.4509 64.1328C65.5391 64.3837 65.5766 64.6495 65.5613 64.9149C65.58 65.324 65.5023 65.7318 65.3343 66.1056C65.1854 66.3908 64.9542 66.6249 64.6704 66.7778C64.38 66.9375 64.0532 67.0198 63.7216 67.0168C63.4746 67.0271 63.2281 66.9855 62.9982 66.8947C62.7684 66.8039 62.5603 66.6659 62.3874 66.4897C62.0469 66.1333 61.8777 65.6255 61.8777 64.9639ZM62.563 64.9639C62.532 65.367 62.6492 65.7674 62.8928 66.0907C62.9954 66.209 63.1223 66.3039 63.2649 66.3689C63.4076 66.434 63.5626 66.4677 63.7195 66.4677C63.8764 66.4677 64.0314 66.434 64.1741 66.3689C64.3167 66.3039 64.4436 66.209 64.5462 66.0907C64.766 65.8417 64.876 65.4597 64.876 64.9447C64.9042 64.5496 64.7861 64.1579 64.544 63.8436C64.4409 63.7266 64.3139 63.6328 64.1716 63.5686C64.0292 63.5044 63.8747 63.4712 63.7184 63.4712C63.5621 63.4712 63.4077 63.5044 63.2653 63.5686C63.1229 63.6328 62.9959 63.7266 62.8928 63.8436C62.6499 64.1647 62.5326 64.563 62.563 64.9639Z" fill="#2F80ED"/>
<path d="M68.9065 65.4889L69.5618 65.5721C69.5151 65.9827 69.3193 66.3622 69.0114 66.6391C68.7095 66.8959 68.3224 67.0313 67.9256 67.0189C67.6842 67.0288 67.4435 66.9871 67.2196 66.8966C66.9958 66.806 66.794 66.6687 66.6278 66.494C66.3023 66.144 66.1374 65.6404 66.1374 64.9874C66.1299 64.6067 66.2029 64.2286 66.3515 63.8778C66.4794 63.5751 66.7057 63.3241 66.994 63.165C67.2805 63.0054 67.6038 62.923 67.932 62.926C68.308 62.9097 68.678 63.0236 68.9793 63.2482C69.2606 63.4798 69.4466 63.8064 69.5019 64.1658L68.8594 64.264C68.8177 64.036 68.7027 63.8278 68.5317 63.6708C68.3728 63.5384 68.1712 63.4679 67.9642 63.4723C67.8096 63.4673 67.6558 63.4969 67.5143 63.559C67.3727 63.621 67.2469 63.7139 67.1461 63.8308C66.9319 64.0719 66.8313 64.4497 66.8313 64.9703C66.8313 65.491 66.9319 65.8773 67.1354 66.1163C67.2312 66.2324 67.3524 66.3251 67.4898 66.3872C67.6271 66.4494 67.777 66.4793 67.9278 66.4748C68.1693 66.4817 68.4041 66.3953 68.5831 66.2336C68.7745 66.0304 68.8888 65.767 68.9065 65.4889Z" fill="#2F80ED"/>
<path d="M70.1251 66.9229V63.0071H70.7247V63.6003C70.8257 63.388 70.9718 63.2001 71.153 63.0498C71.2787 62.9628 71.4283 62.9166 71.5814 62.9175C71.8255 62.9223 72.0632 62.9963 72.2667 63.1309L72.0375 63.7476C71.8909 63.6565 71.722 63.6071 71.5492 63.6046C71.4076 63.6028 71.2695 63.6487 71.1573 63.7348C71.0374 63.8258 70.9502 63.9531 70.9089 64.0975C70.8322 64.3485 70.7946 64.6098 70.7975 64.8722V66.9229H70.1251Z" fill="#2F80ED"/>
<path d="M75.2328 66.9229V66.3467C75.0999 66.5553 74.915 66.726 74.6962 66.8423C74.4774 66.9586 74.2321 67.0165 73.9843 67.0104C73.7631 67.0118 73.5442 66.9667 73.3418 66.8781C73.1651 66.8095 73.0104 66.6945 72.8942 66.5452C72.7872 66.3986 72.7141 66.2303 72.68 66.0523C72.647 65.8477 72.6334 65.6405 72.6393 65.4334V63.0071H73.3054V65.1773C73.2973 65.4121 73.3109 65.6471 73.3461 65.8794C73.3819 66.0446 73.4771 66.1911 73.6138 66.2913C73.7609 66.3939 73.9375 66.4464 74.117 66.4406C74.3146 66.441 74.5085 66.3879 74.6781 66.287C74.8456 66.1938 74.9768 66.0472 75.0508 65.8709C75.1345 65.6245 75.1716 65.3647 75.16 65.1048V63.0071H75.826V66.9229H75.2328Z" fill="#2F80ED"/>
<path d="M76.5199 66.9229V66.3851L79.0235 63.5214C78.7386 63.5363 78.4881 63.5449 78.2718 63.5449H76.6677V63.0071H79.8801V63.4339L77.7514 65.9199L77.3402 66.3745C77.6378 66.351 77.9184 66.3403 78.1797 66.3403H79.9979V66.9122L76.5199 66.9229Z" fill="#2F80ED"/>
<path d="M82.8313 66.9229V61.5155H83.9149L85.1999 65.3438C85.3198 65.7001 85.4141 65.9669 85.459 66.144C85.5211 65.9477 85.6175 65.6596 85.7481 65.2776L87.0481 61.5155H88.014V66.9229H87.3222V62.3968L85.746 66.9229H85.1035L83.5337 62.32V66.9229H82.8313Z" fill="#2F80ED"/>
<path d="M91.6483 66.4406C91.4379 66.6278 91.1967 66.7772 90.9351 66.8824C90.7 66.9688 90.4512 67.0122 90.2006 67.0104C89.8408 67.0344 89.4852 66.9224 89.2047 66.6967C89.0917 66.5953 89.0021 66.4707 88.9422 66.3314C88.8823 66.1921 88.8535 66.0415 88.8578 65.8901C88.8563 65.7117 88.8989 65.5356 88.9819 65.3775C89.0648 65.2193 89.1854 65.0839 89.3332 64.9831C89.4803 64.8863 89.6424 64.8142 89.8129 64.7698C90.0077 64.724 90.2051 64.6905 90.404 64.6695C90.8069 64.6332 91.2051 64.5567 91.5926 64.4411C91.5926 64.3494 91.5926 64.2917 91.5926 64.2683C91.6034 64.1649 91.592 64.0605 91.5591 63.9619C91.5263 63.8633 91.4727 63.7728 91.402 63.6964C91.1853 63.5318 90.9156 63.4521 90.6439 63.4723C90.4014 63.4541 90.1591 63.5107 89.95 63.6345C89.7761 63.7855 89.6591 63.9909 89.618 64.217L88.9756 64.1274C89.0195 63.883 89.1199 63.6521 89.269 63.4531C89.4242 63.269 89.6283 63.1322 89.8579 63.0583C90.1446 62.9611 90.446 62.9142 90.7488 62.9196C91.0263 62.9104 91.3033 62.9501 91.5669 63.037C91.7439 63.095 91.9032 63.1971 92.0295 63.3336C92.1359 63.4654 92.2093 63.6204 92.2437 63.786C92.2706 63.989 92.2813 64.1938 92.2758 64.3984V65.284C92.2659 65.675 92.2802 66.0663 92.3186 66.4556C92.3489 66.6202 92.406 66.7788 92.4878 66.925H91.7918C91.7152 66.7734 91.6666 66.6094 91.6483 66.4406ZM91.5926 64.9575C91.2408 65.082 90.8757 65.1658 90.5047 65.2072C90.3059 65.2294 90.1104 65.2745 89.9222 65.3416C89.8153 65.3847 89.7242 65.4591 89.6609 65.555C89.5994 65.6481 89.5673 65.7573 89.5688 65.8687C89.567 65.953 89.5842 66.0366 89.619 66.1134C89.6539 66.1902 89.7055 66.2582 89.7701 66.3126C89.9376 66.4423 90.1475 66.5054 90.359 66.4897C90.5984 66.4946 90.8348 66.4364 91.0444 66.3211C91.236 66.218 91.3903 66.0575 91.4855 65.8623C91.5675 65.651 91.604 65.4249 91.5926 65.1987V64.9575Z" fill="#2F80ED"/>
<path d="M94.7536 66.3297L94.85 66.9165C94.6846 66.9524 94.516 66.9717 94.3467 66.9741C94.1524 66.9841 93.9587 66.9452 93.7835 66.861C93.6593 66.7942 93.5608 66.6884 93.5029 66.5601C93.4315 66.3048 93.404 66.0393 93.4216 65.7748V63.5214H92.9333V63.0071H93.4216V62.0361L94.0833 61.6371V63.0071H94.7536V63.5214H94.0833V65.8132C94.0763 65.9359 94.0879 66.0589 94.1176 66.1782C94.1415 66.232 94.182 66.2768 94.2332 66.3062C94.3031 66.3425 94.3815 66.3594 94.4602 66.3553C94.5585 66.3533 94.6565 66.3447 94.7536 66.3297Z" fill="#2F80ED"/>
<path d="M95.1563 64.9639C95.1563 64.2384 95.3597 63.7028 95.7645 63.3528C96.1095 63.0636 96.5496 62.9116 97.0002 62.926C97.2459 62.9176 97.4908 62.9603 97.719 63.0514C97.9473 63.1425 98.1539 63.2801 98.3259 63.4552C98.5041 63.653 98.6413 63.884 98.7295 64.1349C98.8177 64.3858 98.8552 64.6516 98.8399 64.917C98.8586 65.3261 98.7809 65.7339 98.6128 66.1077C98.464 66.3929 98.2327 66.6271 97.9489 66.7799C97.6586 66.9396 97.3318 67.0219 97.0002 67.0189C96.7531 67.0292 96.5067 66.9876 96.2768 66.8968C96.0469 66.806 95.8388 66.668 95.666 66.4918C95.3276 66.1333 95.1563 65.6255 95.1563 64.9639ZM95.8416 64.9639C95.8106 65.3669 95.9278 65.7674 96.1714 66.0907C96.2739 66.209 96.4008 66.3039 96.5435 66.3689C96.6861 66.434 96.8412 66.4677 96.9981 66.4677C97.1549 66.4677 97.31 66.434 97.4526 66.3689C97.5953 66.3039 97.7222 66.209 97.8247 66.0907C98.046 65.8417 98.156 65.4597 98.1545 64.9447C98.1833 64.5499 98.066 64.1581 97.8247 63.8436C97.7214 63.7265 97.5943 63.6328 97.4517 63.5685C97.3092 63.5043 97.1545 63.471 96.9981 63.471C96.8416 63.471 96.687 63.5043 96.5444 63.5685C96.4019 63.6328 96.2747 63.7265 96.1714 63.8436C95.9284 64.1647 95.8112 64.563 95.8416 64.9639Z" fill="#2F80ED"/>
<path d="M104.35 64.8018V64.1616H106.65V66.1675C106.322 66.437 105.954 66.6531 105.558 66.8077C105.19 66.9481 104.798 67.0204 104.404 67.0211C103.898 67.0279 103.399 66.9106 102.95 66.6796C102.524 66.4637 102.179 66.1184 101.964 65.6937C101.738 65.2468 101.623 64.7519 101.63 64.2512C101.627 63.7416 101.741 63.2381 101.962 62.7788C102.16 62.3456 102.495 61.9888 102.915 61.763C103.357 61.5343 103.85 61.4198 104.348 61.4301C104.714 61.4247 105.077 61.4891 105.419 61.62C105.71 61.7277 105.967 61.9103 106.164 62.1493C106.362 62.4125 106.502 62.7142 106.575 63.0348L105.933 63.212C105.871 62.9819 105.768 62.765 105.629 62.5718C105.493 62.4027 105.315 62.2724 105.113 62.1941C104.875 62.096 104.62 62.0474 104.363 62.0511C104.07 62.0432 103.779 62.094 103.506 62.2005C103.286 62.2871 103.088 62.4212 102.926 62.5931C102.783 62.7513 102.668 62.9324 102.586 63.1287C102.442 63.473 102.369 63.8423 102.371 64.2149C102.358 64.6321 102.443 65.0465 102.62 65.4249C102.776 65.7391 103.032 65.9933 103.348 66.1483C103.663 66.3055 104.011 66.3866 104.363 66.3851C104.675 66.3847 104.984 66.3238 105.273 66.2059C105.517 66.1164 105.744 65.9873 105.946 65.8239V64.8167L104.35 64.8018Z" fill="#2F80ED"/>
<path d="M107.616 66.9229V63.0071H108.216V63.6003C108.317 63.388 108.463 63.2001 108.644 63.0498C108.77 62.9628 108.919 62.9166 109.072 62.9175C109.317 62.9223 109.554 62.9963 109.758 63.1309L109.529 63.7476C109.382 63.6565 109.213 63.6071 109.04 63.6046C108.899 63.6028 108.761 63.6487 108.648 63.7348C108.528 63.8258 108.441 63.9531 108.4 64.0975C108.323 64.3485 108.286 64.6098 108.289 64.8722V66.9229H107.616Z" fill="#2F80ED"/>
<path d="M109.899 64.9639C109.899 64.2384 110.103 63.7028 110.507 63.3528C110.852 63.0633 111.292 62.9112 111.743 62.926C111.989 62.9177 112.234 62.9605 112.462 63.0516C112.69 63.1427 112.897 63.2802 113.069 63.4552C113.247 63.653 113.384 63.884 113.472 64.1349C113.561 64.3858 113.598 64.6516 113.583 64.917C113.602 65.3264 113.523 65.7345 113.354 66.1077C113.206 66.3928 112.975 66.6269 112.692 66.7799C112.401 66.9396 112.075 67.0219 111.743 67.0189C111.496 67.0292 111.25 66.9876 111.02 66.8968C110.79 66.806 110.582 66.668 110.409 66.4918C110.068 66.1333 109.899 65.6255 109.899 64.9639ZM110.584 64.9639C110.553 65.367 110.671 65.7674 110.914 66.0907C111.017 66.209 111.144 66.3039 111.286 66.3689C111.429 66.434 111.584 66.4677 111.741 66.4677C111.898 66.4677 112.053 66.434 112.196 66.3689C112.338 66.3039 112.465 66.209 112.568 66.0907C112.789 65.8417 112.899 65.4597 112.897 64.9447C112.926 64.5496 112.808 64.1579 112.565 63.8436C112.462 63.7266 112.335 63.6328 112.193 63.5686C112.051 63.5044 111.896 63.4712 111.74 63.4712C111.584 63.4712 111.429 63.5044 111.287 63.5686C111.144 63.6328 111.017 63.7266 110.914 63.8436C110.671 64.1647 110.554 64.563 110.584 64.9639Z" fill="#2F80ED"/>
<path d="M114.097 65.7535L114.756 65.6511C114.778 65.8843 114.888 66.1005 115.065 66.255C115.268 66.4078 115.519 66.4835 115.774 66.4684C116.016 66.4877 116.257 66.4212 116.455 66.2806C116.52 66.2297 116.573 66.165 116.61 66.0912C116.647 66.0174 116.667 65.9363 116.669 65.8538C116.67 65.7826 116.653 65.7123 116.618 65.6501C116.584 65.5878 116.533 65.5359 116.472 65.4995C116.255 65.3964 116.026 65.3204 115.791 65.2734C115.444 65.197 115.104 65.0906 114.776 64.9554C114.599 64.8762 114.45 64.7461 114.347 64.582C114.251 64.4239 114.2 64.2421 114.202 64.057C114.2 63.8881 114.242 63.7215 114.322 63.5726C114.4 63.4246 114.512 63.2973 114.649 63.2013C114.78 63.1121 114.925 63.0464 115.078 63.0071C115.265 62.9528 115.459 62.9262 115.654 62.9281C115.93 62.9232 116.205 62.968 116.465 63.0604C116.669 63.1285 116.848 63.2538 116.981 63.4211C117.105 63.6021 117.184 63.8099 117.211 64.0271L116.568 64.1167C116.548 63.9315 116.456 63.7615 116.311 63.643C116.136 63.5201 115.923 63.4606 115.709 63.4744C115.48 63.4535 115.25 63.5066 115.054 63.6259C114.995 63.6644 114.946 63.7168 114.912 63.7786C114.878 63.8404 114.86 63.9097 114.859 63.9802C114.858 64.0642 114.887 64.1459 114.941 64.2106C115.007 64.2925 115.095 64.3539 115.195 64.3878C115.262 64.4134 115.457 64.4688 115.784 64.5585C116.119 64.6409 116.448 64.7435 116.769 64.8658C116.942 64.9404 117.09 65.0616 117.198 65.2157C117.309 65.3838 117.364 65.5823 117.356 65.7834C117.355 66.0062 117.288 66.2238 117.164 66.4086C117.024 66.6104 116.829 66.7676 116.602 66.861C116.34 66.9713 116.058 67.0258 115.774 67.0211C115.359 67.0495 114.947 66.9383 114.604 66.7052C114.321 66.4629 114.14 66.1231 114.097 65.7535Z" fill="#2F80ED"/>
<path d="M117.887 65.7535L118.545 65.6511C118.568 65.8843 118.679 66.1001 118.855 66.255C119.059 66.4079 119.31 66.4835 119.564 66.4684C119.806 66.4877 120.048 66.4212 120.245 66.2806C120.311 66.2299 120.364 66.1653 120.401 66.0914C120.438 66.0175 120.458 65.9364 120.459 65.8538C120.462 65.7828 120.445 65.7126 120.41 65.6503C120.376 65.588 120.326 65.536 120.265 65.4996C120.048 65.3964 119.819 65.3204 119.584 65.2734C119.236 65.1969 118.895 65.0905 118.566 64.9554C118.393 64.8779 118.246 64.7515 118.144 64.5918C118.042 64.4322 117.989 64.2462 117.992 64.057C117.99 63.888 118.031 63.7212 118.112 63.5726C118.19 63.4246 118.303 63.2973 118.44 63.2013C118.57 63.1121 118.715 63.0464 118.868 63.0071C119.055 62.953 119.248 62.9264 119.442 62.9281C119.719 62.9232 119.995 62.968 120.256 63.0605C120.459 63.1285 120.639 63.2538 120.772 63.4211C120.895 63.6026 120.973 63.8101 121.001 64.0271L120.359 64.1168C120.338 63.9315 120.246 63.7615 120.102 63.643C119.926 63.5204 119.714 63.4609 119.5 63.4744C119.271 63.4535 119.041 63.5066 118.845 63.6259C118.786 63.6649 118.737 63.7175 118.703 63.7791C118.669 63.8408 118.65 63.9097 118.648 63.9802C118.647 64.064 118.676 64.1454 118.729 64.2106C118.796 64.2926 118.885 64.354 118.986 64.3878C119.052 64.4134 119.247 64.4689 119.573 64.5585C119.908 64.641 120.238 64.7436 120.56 64.8658C120.733 64.9404 120.881 65.0616 120.988 65.2157C121.099 65.3842 121.154 65.5824 121.147 65.7834C121.146 66.0066 121.079 66.2244 120.952 66.4086C120.814 66.6108 120.62 66.7681 120.393 66.861C120.13 66.9713 119.847 67.0258 119.562 67.0211C119.149 67.0492 118.737 66.938 118.395 66.7052C118.111 66.4636 117.929 66.1234 117.887 65.7535Z" fill="#2F80ED"/>
<path d="M121.695 64.9639C121.695 64.2384 121.909 63.7028 122.303 63.3528C122.648 63.0633 123.088 62.9112 123.539 62.926C123.785 62.9177 124.03 62.9605 124.258 63.0516C124.486 63.1427 124.693 63.2802 124.865 63.4552C125.043 63.653 125.18 63.884 125.268 64.1349C125.357 64.3858 125.394 64.6516 125.379 64.917C125.398 65.3264 125.319 65.7345 125.15 66.1077C125.002 66.3932 124.771 66.6276 124.488 66.7799C124.198 66.9396 123.871 67.0219 123.539 67.0189C123.292 67.0292 123.046 66.9876 122.816 66.8968C122.586 66.806 122.378 66.668 122.205 66.4918C121.864 66.1333 121.695 65.6255 121.695 64.9639ZM122.38 64.9639C122.349 65.367 122.467 65.7674 122.71 66.0907C122.813 66.209 122.94 66.3039 123.082 66.3689C123.225 66.434 123.38 66.4677 123.537 66.4677C123.694 66.4677 123.849 66.434 123.992 66.3689C124.134 66.3039 124.261 66.209 124.364 66.0907C124.584 65.8417 124.693 65.4597 124.693 64.9447C124.722 64.5496 124.604 64.1579 124.361 63.8436C124.258 63.7266 124.131 63.6328 123.989 63.5686C123.847 63.5044 123.692 63.4712 123.536 63.4712C123.38 63.4712 123.225 63.5044 123.083 63.5686C122.94 63.6328 122.813 63.7266 122.71 63.8436C122.467 64.1647 122.35 64.563 122.38 64.9639Z" fill="#2F80ED"/>
<path d="M130.816 66.9229V66.4278C130.702 66.614 130.539 66.7663 130.346 66.8687C130.152 66.9712 129.935 67.0201 129.716 67.0104C129.411 67.011 129.112 66.9211 128.859 66.7522C128.591 66.5753 128.379 66.3258 128.249 66.033C128.099 65.6976 128.026 65.3331 128.034 64.9661C128.029 64.6012 128.095 64.2387 128.229 63.8991C128.345 63.6003 128.551 63.3446 128.818 63.1671C129.079 62.9983 129.385 62.9099 129.696 62.9132C129.916 62.9089 130.133 62.9603 130.328 63.0626C130.506 63.1563 130.661 63.2891 130.78 63.451V61.5112H131.442V66.9186L130.816 66.9229ZM128.709 64.9682C128.679 65.3688 128.792 65.767 129.028 66.0928C129.117 66.2079 129.23 66.3013 129.361 66.3661C129.491 66.4308 129.634 66.465 129.78 66.4662C129.922 66.4665 130.063 66.4346 130.191 66.3729C130.32 66.3112 130.432 66.2212 130.521 66.1099C130.748 65.7953 130.857 65.4104 130.827 65.0237C130.827 64.4881 130.724 64.0933 130.516 63.8436C130.427 63.7259 130.311 63.6306 130.178 63.5654C130.045 63.5002 129.898 63.4669 129.75 63.468C129.606 63.4666 129.465 63.4985 129.336 63.5611C129.207 63.6236 129.094 63.7153 129.007 63.8287C128.81 64.0698 128.709 64.4497 128.709 64.9682Z" fill="#2F80ED"/>
<path d="M132.234 64.9639C132.234 64.2384 132.435 63.7028 132.84 63.3528C133.185 63.0636 133.625 62.9117 134.076 62.926C134.322 62.9173 134.567 62.9599 134.795 63.051C135.023 63.1422 135.23 63.2798 135.402 63.4552C135.58 63.653 135.717 63.884 135.805 64.1349C135.893 64.3858 135.931 64.6516 135.916 64.917C135.935 65.3262 135.858 65.7343 135.688 66.1077C135.54 66.3924 135.309 66.6264 135.027 66.7799C134.736 66.9399 134.408 67.0223 134.076 67.0189C133.829 67.0276 133.582 66.9844 133.353 66.8921C133.123 66.7998 132.916 66.6606 132.744 66.4833C132.403 66.1333 132.234 65.6255 132.234 64.9639ZM132.917 64.9639C132.887 65.3669 133.004 65.767 133.247 66.0907C133.35 66.209 133.477 66.304 133.62 66.369C133.763 66.4341 133.918 66.4678 134.075 66.4678C134.232 66.4678 134.387 66.4341 134.53 66.369C134.673 66.304 134.8 66.209 134.903 66.0907C135.117 65.841 135.232 65.4505 135.232 64.9447C135.261 64.5496 135.142 64.1579 134.9 63.8436C134.797 63.7265 134.67 63.6328 134.527 63.5685C134.385 63.5043 134.23 63.471 134.074 63.471C133.917 63.471 133.763 63.5043 133.62 63.5685C133.478 63.6328 133.35 63.7265 133.247 63.8436C133.005 64.1651 132.888 64.5631 132.917 64.9639Z" fill="#2F80ED"/>
<path d="M138.644 65.1859L139.321 65.1261C139.338 65.3619 139.411 65.5902 139.535 65.7919C139.672 65.9834 139.862 66.1316 140.081 66.2187C140.345 66.3288 140.628 66.3833 140.914 66.3787C141.161 66.3835 141.406 66.3423 141.638 66.2571C141.823 66.1937 141.986 66.078 142.107 65.9242C142.207 65.7906 142.262 65.6281 142.261 65.4612C142.264 65.3007 142.212 65.1441 142.113 65.0173C141.982 64.8692 141.814 64.7587 141.625 64.6972C141.479 64.6417 141.156 64.5542 140.657 64.4347C140.297 64.3604 139.946 64.2473 139.61 64.0975C139.376 63.9837 139.176 63.8099 139.032 63.5939C138.904 63.392 138.838 63.158 138.841 62.9196C138.84 62.6474 138.922 62.3813 139.074 62.1557C139.24 61.9093 139.478 61.7199 139.755 61.6136C140.072 61.4881 140.41 61.4257 140.751 61.4301C141.118 61.4221 141.482 61.4881 141.822 61.6243C142.111 61.7384 142.358 61.9371 142.531 62.1941C142.697 62.4485 142.789 62.7441 142.797 63.0476L142.109 63.0989C142.101 62.9513 142.064 62.8067 141.999 62.6737C141.934 62.5407 141.843 62.4219 141.732 62.3242C141.456 62.1326 141.123 62.0408 140.788 62.0639C140.453 62.0366 140.119 62.1198 139.837 62.3008C139.745 62.3662 139.67 62.4523 139.619 62.5521C139.567 62.6519 139.54 62.7625 139.539 62.8748C139.537 62.9656 139.555 63.0557 139.592 63.1387C139.629 63.2217 139.684 63.2956 139.753 63.3549C139.89 63.4787 140.252 63.6067 140.824 63.739C141.234 63.8192 141.636 63.9349 142.026 64.0847C142.305 64.2014 142.547 64.3918 142.726 64.6353C142.877 64.8628 142.955 65.1307 142.951 65.4035C142.949 65.6935 142.863 65.9768 142.702 66.2187C142.528 66.4808 142.281 66.6869 141.991 66.8119C141.662 66.9575 141.304 67.0303 140.944 67.0253C140.523 67.0382 140.103 66.9656 139.71 66.8119C139.391 66.6818 139.119 66.4587 138.929 66.1718C138.742 65.8768 138.643 65.5348 138.644 65.1859Z" fill="#2F80ED"/>
<path d="M146.435 66.9229V66.3467C146.303 66.5551 146.118 66.7258 145.9 66.8421C145.681 66.9584 145.436 67.0164 145.189 67.0104C144.968 67.0117 144.749 66.9667 144.546 66.8781C144.37 66.8085 144.216 66.6937 144.099 66.5452C143.993 66.3977 143.92 66.2297 143.884 66.0523C143.853 65.8476 143.839 65.6405 143.844 65.4334V63.0071H144.51V65.1773C144.503 65.4121 144.516 65.647 144.551 65.8794C144.587 66.0442 144.682 66.1904 144.818 66.2913C144.965 66.3937 145.142 66.4461 145.321 66.4406C145.52 66.441 145.714 66.3879 145.885 66.287C146.051 66.1934 146.182 66.0469 146.255 65.8709C146.339 65.6245 146.376 65.3647 146.364 65.1048V63.0071H147.031V66.9229H146.435Z" fill="#2F80ED"/>
<path d="M148.061 66.9229V61.5155H148.727V66.9229H148.061Z" fill="#2F80ED"/>
<path d="M55.7505 56.2531V49.4458H60.5178V50.628H57.1447V52.173H60.1002V53.3552H57.1447V56.2531H55.7505Z" fill="#2F80ED"/>
<path d="M65.602 51.2298V56.2531H64.2806V55.6578C64.1026 55.8891 63.8731 56.0761 63.6103 56.2041C63.3422 56.3286 63.0494 56.3913 62.7536 56.3876C62.1989 56.3876 61.7856 56.2425 61.5072 55.9608C61.2288 55.6791 61.0939 55.2395 61.0939 54.6633V51.249H62.4431V54.2771C62.4197 54.5444 62.4827 54.8121 62.623 55.041C62.6983 55.1229 62.7917 55.1861 62.8957 55.2258C62.9998 55.2654 63.1118 55.2803 63.2226 55.2694C63.3611 55.2761 63.4995 55.2544 63.6292 55.2056C63.7589 55.1567 63.8771 55.0819 63.9765 54.9856C64.0724 54.8814 64.1466 54.7593 64.1948 54.6263C64.243 54.4933 64.2641 54.3521 64.257 54.2109V51.2298H65.602Z" fill="#2F80ED"/>
<path d="M66.782 56.2531V51.2298H68.1034V51.8252C68.2792 51.5926 68.5083 51.4053 68.7716 51.2789C69.0397 51.1545 69.3325 51.0918 69.6282 51.0954C70.185 51.0954 70.6012 51.2376 70.8768 51.5222C71.1552 51.8103 71.2922 52.2434 71.2922 52.8217V56.2467H69.943V53.2101C69.9662 52.9396 69.9017 52.6688 69.7588 52.4376C69.6844 52.3557 69.5919 52.2923 69.4885 52.2523C69.3852 52.2123 69.2739 52.1968 69.1635 52.2072C69.0247 52.2004 68.886 52.2221 68.7559 52.2709C68.6259 52.3197 68.5073 52.3946 68.4075 52.491C68.3119 52.5953 68.2381 52.7175 68.1903 52.8505C68.1425 52.9834 68.1217 53.1246 68.1291 53.2656V56.2531H66.782Z" fill="#2F80ED"/>
<path d="M77.0853 49.4458V56.2531H75.8003V55.5745C75.6353 55.8362 75.4108 56.0555 75.145 56.2147C74.8831 56.3592 74.5877 56.4328 74.2884 56.4281C73.9962 56.4347 73.7066 56.3715 73.444 56.2438C73.1813 56.1161 72.9531 55.9276 72.7785 55.694C72.3748 55.1368 72.1718 54.4601 72.2024 53.7735C72.1705 53.0768 72.3733 52.3895 72.7785 51.8209C73.0447 51.4693 73.4263 51.2218 73.8567 51.1216C74.2872 51.0214 74.7393 51.0748 75.1343 51.2725C75.3923 51.4123 75.6098 51.6159 75.7661 51.8636V49.4458H77.0853ZM73.5559 53.7137C73.5297 54.1209 73.6299 54.5262 73.8429 54.8746C73.9365 55.0056 74.0617 55.111 74.2069 55.1811C74.3521 55.2512 74.5127 55.2838 74.6739 55.2758C74.8333 55.2842 74.9923 55.2519 75.1358 55.1821C75.2794 55.1123 75.4026 55.0072 75.4941 54.8767C75.705 54.5268 75.8036 54.121 75.7768 53.7137C75.8015 53.3251 75.6976 52.9391 75.4812 52.6147C75.3834 52.4883 75.2564 52.3871 75.111 52.3199C74.9656 52.2527 74.8061 52.2213 74.646 52.2285C74.4903 52.2235 74.3358 52.2572 74.1963 52.3265C74.0569 52.3958 73.9369 52.4985 73.8472 52.6254C73.6378 52.9463 73.5359 53.3251 73.5559 53.7073V53.7137Z" fill="#2F80ED"/>
<path d="M81.1865 55.63C81.0216 55.8853 80.7908 56.0917 80.5183 56.2275C80.2188 56.3722 79.8896 56.4452 79.5567 56.4409C79.35 56.4544 79.1428 56.4244 78.9484 56.3531C78.754 56.2818 78.5768 56.1707 78.4281 56.0269C78.1462 55.6987 78.0041 55.2737 78.0319 54.8426C78.0184 54.644 78.0467 54.4449 78.115 54.2578C78.1832 54.0708 78.2898 53.9 78.4281 53.7564C78.6937 53.5067 79.1284 53.3296 79.7388 53.2443C79.878 53.2229 80.06 53.1973 80.2849 53.1696C80.8588 53.0949 81.1415 52.9306 81.1415 52.6745C81.148 52.5932 81.134 52.5115 81.1007 52.4369C81.0674 52.3624 81.0159 52.2973 80.9509 52.2477C80.7542 52.1424 80.531 52.0964 80.3084 52.1154C80.0872 52.1009 79.8672 52.1578 79.681 52.2776C79.61 52.331 79.5534 52.401 79.5161 52.4814C79.4787 52.5618 79.4618 52.6501 79.4668 52.7385V52.8132H78.2054V52.7214C78.1953 52.4905 78.2396 52.2603 78.3348 52.0495C78.43 51.8386 78.5735 51.6529 78.7536 51.5072C79.1912 51.1902 79.7255 51.034 80.2656 51.0655C80.9695 51.0655 81.5099 51.1871 81.8868 51.4304C82.0658 51.5408 82.2123 51.6965 82.3112 51.8817C82.4102 52.0669 82.4581 52.2749 82.4501 52.4846V55.3419C82.4422 55.5003 82.464 55.6588 82.5143 55.8093C82.556 55.91 82.6318 55.993 82.7285 56.044V56.2702H81.345C81.2969 56.18 81.2609 56.0838 81.2379 55.9843C81.207 55.8686 81.1897 55.7497 81.1865 55.63ZM81.1629 53.7799C80.9201 53.8892 80.6658 53.9715 80.4048 54.0253C80.1178 54.0872 79.9765 54.1192 79.9615 54.1235C79.7755 54.1625 79.6033 54.2501 79.4625 54.3774C79.361 54.4957 79.3103 54.649 79.3212 54.8042C79.3176 54.8864 79.3319 54.9683 79.3629 55.0445C79.394 55.1207 79.4411 55.1894 79.5011 55.2459C79.6375 55.3594 79.8119 55.4173 79.9893 55.4081C80.1455 55.4161 80.3016 55.393 80.4487 55.3403C80.5957 55.2875 80.7308 55.2061 80.846 55.1008C80.9528 54.9897 81.0357 54.858 81.0894 54.7137C81.1432 54.5695 81.1668 54.4158 81.1587 54.2622L81.1629 53.7799Z" fill="#2F80ED"/>
<path d="M86.6819 54.3582H88.0118C87.9874 54.9337 87.7366 55.4764 87.3137 55.869C86.8747 56.2483 86.3073 56.4467 85.7267 56.4239C85.4058 56.4391 85.0854 56.3829 84.7891 56.2592C84.4927 56.1355 84.2277 55.9476 84.0134 55.709C83.598 55.2338 83.3902 54.5759 83.3902 53.7351C83.3902 52.8943 83.6044 52.237 84.0327 51.7633C84.2544 51.5231 84.5265 51.3345 84.8297 51.2109C85.1328 51.0874 85.4596 51.0319 85.7867 51.0484C86.3514 51.0245 86.9051 51.2092 87.3415 51.567C87.543 51.751 87.7052 51.9736 87.8185 52.2214C87.9318 52.4693 87.9939 52.7373 88.0011 53.0095H86.6605C86.6417 52.7779 86.5416 52.5603 86.3778 52.395C86.2146 52.2482 85.9999 52.1716 85.7803 52.1816C85.6314 52.1733 85.483 52.2055 85.351 52.2747C85.219 52.3438 85.1083 52.4473 85.0307 52.5742C84.8421 52.9371 84.7563 53.3443 84.7823 53.7522C84.7588 54.141 84.848 54.5284 85.0393 54.8682C85.1175 54.9924 85.2271 55.0939 85.3572 55.1625C85.4873 55.2311 85.6332 55.2642 85.7803 55.2587C85.8908 55.2641 86.0012 55.2468 86.1048 55.2079C86.2083 55.169 86.3027 55.1093 86.3821 55.0325C86.5514 54.8452 86.6564 54.609 86.6819 54.3582ZM84.7095 58.2783V57.6914C84.9579 57.7554 85.1828 57.8067 85.3841 57.8387C85.5537 57.8699 85.7256 57.887 85.8981 57.8899C86.0214 57.9 86.1449 57.8716 86.2514 57.8088C86.2893 57.7783 86.319 57.739 86.338 57.6943C86.3571 57.6497 86.3649 57.601 86.3607 57.5527C86.3649 57.5033 86.3551 57.4537 86.3324 57.4095C86.3096 57.3654 86.2749 57.3285 86.2322 57.303C86.0971 57.2457 85.9503 57.2209 85.8038 57.2305H85.6432C85.609 57.2281 85.5746 57.2281 85.5404 57.2305V56.2553H86.0137V56.6714H86.0822C86.3713 56.6485 86.6596 56.7237 86.9003 56.8848C86.9895 56.9747 87.0595 57.0816 87.1062 57.199C87.1529 57.3165 87.1754 57.4422 87.1721 57.5685C87.169 57.6948 87.1402 57.8192 87.0876 57.9342C87.035 58.0492 86.9597 58.1524 86.8661 58.2377C86.5937 58.4118 86.2722 58.4934 85.9495 58.4703C85.7635 58.4678 85.578 58.4507 85.3948 58.4191C85.1806 58.3892 84.9522 58.3423 84.7095 58.2783Z" fill="#2F80ED"/>
<path d="M91.7554 55.63C91.5915 55.8862 91.3605 56.0929 91.0872 56.2275C90.7885 56.3724 90.4599 56.4455 90.1278 56.4409C89.921 56.4545 89.7137 56.4246 89.5193 56.3533C89.3249 56.282 89.1477 56.1708 88.9991 56.0269C88.7162 55.6992 88.5739 55.2739 88.6029 54.8426C88.5889 54.644 88.617 54.4447 88.6852 54.2576C88.7535 54.0705 88.8604 53.8997 88.9991 53.7564C89.2633 53.5075 89.7001 53.3367 90.3098 53.2443C90.449 53.2229 90.631 53.1973 90.8559 53.1696C91.427 53.0956 91.7125 52.9306 91.7125 52.6745C91.7187 52.5932 91.7045 52.5117 91.6712 52.4372C91.6379 52.3627 91.5867 52.2976 91.5219 52.2477C91.3252 52.1425 91.102 52.0965 90.8795 52.1154C90.6589 52.1009 90.4396 52.1578 90.2541 52.2776C90.1832 52.331 90.1266 52.401 90.0892 52.4814C90.0519 52.5618 90.035 52.6501 90.0399 52.7385V52.8132H88.7785V52.7214C88.7679 52.4904 88.8121 52.2601 88.9073 52.0492C89.0025 51.8382 89.1462 51.6526 89.3268 51.5072C89.7642 51.1898 90.2986 51.0337 90.8388 51.0655C91.5426 51.0655 92.083 51.1871 92.46 51.4304C92.639 51.5408 92.7855 51.6965 92.8844 51.8817C92.9834 52.0669 93.0312 52.2749 93.0232 52.4846V55.3419C93.0154 55.5003 93.0372 55.6588 93.0875 55.8093C93.1277 55.9109 93.2039 55.9944 93.3016 56.044V56.2702H91.8967C91.8477 56.1804 91.8117 56.0841 91.7896 55.9843C91.7656 55.8677 91.7541 55.749 91.7554 55.63ZM92.3486 49.1556C92.3016 49.4647 92.1796 49.7577 91.9931 50.0092C91.9192 50.0979 91.8261 50.1688 91.7208 50.2165C91.6154 50.2642 91.5006 50.2874 91.3849 50.2845C91.3247 50.2848 91.2645 50.2805 91.205 50.2717C91.1482 50.264 91.0923 50.2511 91.0379 50.2333L90.6332 50.1116C90.5753 50.0967 90.5197 50.086 90.4704 50.0775C90.4226 50.0744 90.3747 50.0744 90.3269 50.0775C90.2346 50.0732 90.1439 50.1028 90.0721 50.1607C89.9964 50.2347 89.9437 50.3288 89.92 50.4317H89.4082C89.4514 50.1332 89.57 49.8505 89.753 49.6101C89.8274 49.5246 89.92 49.4566 90.0241 49.4112C90.1282 49.3658 90.2412 49.3441 90.3548 49.3477C90.42 49.3472 90.4852 49.3522 90.5497 49.3626C90.6185 49.3744 90.6865 49.3908 90.7531 49.4117L91.1814 49.5269C91.2198 49.5396 91.2592 49.5489 91.2992 49.5547C91.3448 49.558 91.3907 49.558 91.4363 49.5547C91.4822 49.556 91.5279 49.5479 91.5706 49.5311C91.6133 49.5142 91.6522 49.4888 91.6847 49.4565C91.7603 49.3719 91.8121 49.2688 91.8346 49.1577L92.3486 49.1556ZM91.7318 53.7906C91.4892 53.9005 91.2349 53.9829 90.9737 54.036C90.6889 54.0978 90.5454 54.1299 90.5325 54.1341C90.3463 54.1724 90.1739 54.2602 90.0335 54.3881C89.9321 54.5063 89.8813 54.6596 89.8922 54.8149C89.8887 54.897 89.9029 54.979 89.9339 55.0552C89.965 55.1314 90.0121 55.2001 90.0721 55.2566C90.2082 55.3706 90.3828 55.4286 90.5604 55.4188C90.7165 55.4272 90.8728 55.4044 91.0199 55.3516C91.1671 55.2988 91.3021 55.2172 91.417 55.1115C91.5243 55.0007 91.6074 54.869 91.6612 54.7247C91.715 54.5804 91.7383 54.4265 91.7297 54.2728L91.7318 53.7906Z" fill="#2F80ED"/>
<path d="M93.9505 53.7351C93.9505 52.8986 94.1776 52.242 94.6316 51.7654C95.0856 51.2889 95.7102 51.0499 96.5055 51.0484C96.8505 51.0302 97.1956 51.0846 97.5181 51.2081C97.8406 51.3317 98.1333 51.5216 98.3773 51.7654C98.8341 52.2434 99.0619 52.9 99.0604 53.7351C99.0604 54.5716 98.8334 55.2288 98.3773 55.7069C98.1333 55.9507 97.8406 56.1406 97.5181 56.2641C97.1956 56.3877 96.8505 56.4421 96.5055 56.4239C95.7102 56.4239 95.0856 56.1849 94.6316 55.7069C94.1776 55.231 93.9505 54.5716 93.9505 53.7351ZM95.319 53.7351C95.2922 54.1432 95.4005 54.5488 95.6274 54.8895C95.7341 55.0172 95.8677 55.1199 96.0187 55.1904C96.1697 55.2609 96.3344 55.2975 96.5012 55.2975C96.668 55.2975 96.8327 55.2609 96.9837 55.1904C97.1347 55.1199 97.2683 55.0172 97.375 54.8895C97.5763 54.5386 97.6822 54.1414 97.6822 53.7372C97.6822 53.333 97.5763 52.9358 97.375 52.5849C97.2672 52.4585 97.1332 52.3569 96.9821 52.2873C96.831 52.2177 96.6666 52.1816 96.5001 52.1816C96.3337 52.1816 96.1692 52.2177 96.0182 52.2873C95.8671 52.3569 95.733 52.4585 95.6253 52.5849C95.3995 52.9245 95.2919 53.3286 95.319 53.7351Z" fill="#2F80ED"/>
<path d="M102.498 52.8559C102.498 51.7576 102.798 50.8848 103.399 50.2375C104 49.5902 104.811 49.268 105.832 49.2708C106.853 49.2708 107.665 49.5938 108.269 50.2397C108.873 50.8855 109.179 51.7576 109.186 52.8559C109.186 53.9527 108.883 54.8248 108.278 55.4721C107.673 56.1194 106.86 56.4431 105.841 56.4431C104.821 56.4431 104.01 56.1194 103.408 55.4721C102.805 54.8248 102.502 53.9527 102.498 52.8559ZM103.93 52.8559C103.93 53.6056 104.098 54.1875 104.432 54.6015C104.6 54.8073 104.814 54.9707 105.057 55.0786C105.301 55.1865 105.566 55.2358 105.832 55.2224C106.101 55.2368 106.368 55.1881 106.614 55.0802C106.86 54.9723 107.077 54.8083 107.248 54.6015C107.583 54.1875 107.752 53.6056 107.753 52.8559C107.755 52.1062 107.59 51.525 107.259 51.1124C107.088 50.9052 106.871 50.7408 106.625 50.6325C106.379 50.5243 106.111 50.4752 105.843 50.4893C105.577 50.476 105.312 50.5253 105.068 50.6332C104.825 50.741 104.61 50.9045 104.442 51.1103C104.101 51.5215 103.93 52.1033 103.93 52.8559Z" fill="#2F80ED"/>
<path d="M109.891 54.6164H111.236C111.234 54.7268 111.258 54.836 111.307 54.9353C111.355 55.0346 111.426 55.1213 111.514 55.1883C111.748 55.3289 112.02 55.3945 112.293 55.3761C112.505 55.3877 112.716 55.342 112.904 55.2438C112.97 55.2071 113.026 55.1528 113.063 55.0869C113.101 55.0211 113.12 54.9462 113.118 54.8703C113.118 54.6441 112.848 54.4713 112.311 54.3582C112.096 54.3112 111.917 54.2728 111.786 54.2387C111.131 54.0722 110.675 53.8745 110.42 53.6455C110.292 53.5289 110.191 53.3857 110.125 53.226C110.058 53.0663 110.028 52.8941 110.036 52.7214C110.027 52.4886 110.073 52.257 110.17 52.0451C110.268 51.8331 110.413 51.6468 110.595 51.5008C111.033 51.1792 111.569 51.0192 112.111 51.0484C112.676 51.0161 113.235 51.1739 113.698 51.4966C113.89 51.6472 114.045 51.8391 114.151 52.0579C114.258 52.2767 114.313 52.5167 114.313 52.7599H113C113.001 52.6644 112.979 52.5701 112.937 52.4842C112.895 52.3984 112.834 52.3233 112.758 52.2648C112.569 52.137 112.343 52.0755 112.116 52.0898C111.918 52.077 111.72 52.1168 111.542 52.205C111.482 52.2403 111.433 52.2911 111.4 52.352C111.368 52.413 111.352 52.4817 111.355 52.5507C111.355 52.7513 111.69 52.9284 112.362 53.0821L112.728 53.1653C113.399 53.3232 113.858 53.5131 114.103 53.7351C114.229 53.8552 114.327 54.0013 114.391 54.163C114.455 54.3248 114.482 54.4985 114.472 54.6719C114.486 54.9221 114.438 55.1721 114.333 55.3996C114.227 55.6271 114.066 55.825 113.865 55.9757C113.463 56.2745 112.877 56.4239 112.107 56.4239C111.412 56.4239 110.867 56.2681 110.473 55.9565C110.28 55.8046 110.127 55.6094 110.024 55.3869C109.922 55.1643 109.874 54.9208 109.884 54.6761L109.891 54.6164Z" fill="#2F80ED"/>
<path d="M116.264 56.2531L114.836 51.2298H116.204L117.029 54.7039L117.725 51.2234H119.102L119.834 54.7039L120.661 51.2234H121.969L120.554 56.2467H119.204L118.395 52.6574L117.615 56.2531H116.264Z" fill="#2F80ED"/>
<path d="M125.516 55.63C125.352 55.8857 125.122 56.0923 124.85 56.2275C124.55 56.3722 124.221 56.4452 123.888 56.4409C123.681 56.4545 123.474 56.4246 123.28 56.3533C123.085 56.282 122.908 56.1708 122.76 56.0269C122.477 55.6992 122.334 55.2739 122.363 54.8426C122.349 54.644 122.377 54.4447 122.446 54.2576C122.514 54.0704 122.621 53.8997 122.76 53.7564C123.024 53.5075 123.461 53.3367 124.07 53.2443C124.209 53.2229 124.391 53.1973 124.616 53.1696C125.187 53.0956 125.473 52.9306 125.473 52.6745C125.479 52.5932 125.465 52.5117 125.432 52.4372C125.398 52.3627 125.347 52.2976 125.282 52.2477C125.086 52.1424 124.862 52.0964 124.64 52.1154C124.419 52.1006 124.199 52.1575 124.012 52.2776C123.941 52.331 123.885 52.401 123.848 52.4814C123.81 52.5618 123.793 52.6501 123.798 52.7385V52.8132H122.537V52.7214C122.526 52.4904 122.57 52.2601 122.666 52.0492C122.761 51.8382 122.905 51.6526 123.085 51.5072C123.522 51.1898 124.057 51.0337 124.597 51.0655C125.301 51.0655 125.841 51.1871 126.218 51.4304C126.397 51.5408 126.544 51.6965 126.643 51.8817C126.742 52.0669 126.79 52.2749 126.782 52.4846V55.3419C126.774 55.5003 126.795 55.6588 126.846 55.8093C126.886 55.9109 126.962 55.9944 127.06 56.044V56.2702H125.676C125.627 56.1804 125.591 56.0841 125.569 55.9843C125.539 55.8684 125.521 55.7497 125.516 55.63ZM125.494 53.7799C125.252 53.8892 124.997 53.9715 124.736 54.0253C124.449 54.0872 124.308 54.1192 124.293 54.1235C124.107 54.1618 123.934 54.2495 123.794 54.3774C123.692 54.4957 123.642 54.649 123.653 54.8042C123.649 54.8864 123.663 54.9683 123.694 55.0445C123.725 55.1207 123.773 55.1894 123.833 55.2459C123.969 55.3598 124.143 55.4178 124.321 55.4081C124.477 55.4166 124.633 55.3937 124.78 55.3409C124.928 55.2882 125.063 55.2065 125.177 55.1008C125.285 54.9901 125.368 54.8585 125.423 54.7142C125.477 54.5699 125.5 54.416 125.492 54.2622L125.494 53.7799Z" fill="#2F80ED"/>
<path d="M128.013 56.2531V49.4458H129.362V56.2531H128.013Z" fill="#2F80ED"/>
<path d="M135.211 49.4458V56.2531H133.926V55.5745C133.761 55.8362 133.536 56.0555 133.271 56.2147C133.009 56.3592 132.713 56.4328 132.414 56.4281C132.122 56.4347 131.832 56.3715 131.57 56.2438C131.307 56.1161 131.079 55.9276 130.904 55.694C130.499 55.1376 130.295 54.4604 130.326 53.7735C130.294 53.0765 130.497 52.3888 130.904 51.8209C131.17 51.4686 131.551 51.2206 131.982 51.1204C132.413 51.0201 132.865 51.074 133.26 51.2725C133.522 51.4102 133.744 51.614 133.902 51.8636V49.4458H135.211ZM131.682 53.7137C131.654 54.121 131.755 54.5266 131.969 54.8746C132.062 55.0057 132.187 55.1112 132.332 55.1814C132.478 55.2515 132.638 55.284 132.799 55.2758C132.959 55.2842 133.118 55.2519 133.261 55.1821C133.405 55.1123 133.528 55.0072 133.62 54.8767C133.831 54.5268 133.929 54.121 133.902 53.7137C133.928 53.3247 133.823 52.9383 133.605 52.6147C133.507 52.4882 133.381 52.3869 133.236 52.3197C133.091 52.2524 132.931 52.2211 132.772 52.2285C132.616 52.2231 132.461 52.2566 132.322 52.326C132.182 52.3953 132.062 52.4982 131.973 52.6254C131.759 52.9449 131.654 53.324 131.673 53.7073L131.682 53.7137Z" fill="#2F80ED"/>
<path d="M136.17 53.7351C136.17 52.8986 136.397 52.242 136.851 51.7654C137.305 51.2889 137.93 51.0499 138.725 51.0484C139.07 51.0302 139.415 51.0846 139.738 51.2081C140.06 51.3317 140.353 51.5216 140.597 51.7654C141.054 52.2434 141.282 52.9 141.282 53.7351C141.282 54.5716 141.053 55.2288 140.597 55.7069C140.353 55.9507 140.06 56.1406 139.738 56.2641C139.415 56.3877 139.07 56.4421 138.725 56.4239C137.931 56.4239 137.307 56.1849 136.851 55.7069C136.385 55.231 136.17 54.5716 136.17 53.7351ZM137.539 53.7351C137.513 54.1431 137.621 54.5483 137.847 54.8895C137.949 55.0236 138.083 55.1308 138.236 55.2018C138.389 55.2729 138.557 55.3056 138.725 55.2971C138.893 55.3051 139.059 55.2721 139.211 55.2011C139.362 55.13 139.494 55.0231 139.595 54.8895C139.796 54.5386 139.902 54.1414 139.902 53.7372C139.902 53.333 139.796 52.9358 139.595 52.5849C139.493 52.452 139.361 52.3458 139.209 52.2755C139.057 52.2052 138.89 52.1729 138.723 52.1816C138.555 52.1728 138.387 52.2049 138.234 52.2752C138.081 52.3455 137.948 52.4517 137.845 52.5849C137.619 52.9243 137.51 53.3282 137.535 53.7351H137.539Z" fill="#2F80ED"/>
<path d="M150.948 53.9143C150.937 54.2673 150.851 54.614 150.696 54.9317C150.542 55.2494 150.322 55.531 150.05 55.7581C149.442 56.2361 148.682 56.4793 147.909 56.4431C146.898 56.4431 146.112 56.1287 145.553 55.4999C144.992 54.8597 144.711 53.9911 144.711 52.8559C144.711 51.7206 144.996 50.8094 145.568 50.1948C146.14 49.5803 146.962 49.2708 148.035 49.2708C148.909 49.2708 149.598 49.4842 150.102 49.911C150.359 50.1357 150.566 50.4117 150.71 50.7213C150.853 51.0308 150.93 51.3669 150.935 51.7078H149.547C149.511 51.3641 149.342 51.0478 149.076 50.8265C148.773 50.6112 148.406 50.5043 148.035 50.5235C147.77 50.5063 147.504 50.5514 147.259 50.6552C147.014 50.759 146.797 50.9185 146.626 51.121C146.304 51.5179 146.144 52.0983 146.144 52.8623C146.144 53.6035 146.304 54.1725 146.624 54.5695C146.924 54.8996 147.334 55.11 147.778 55.1614C148.222 55.2128 148.669 55.1018 149.037 54.849C149.322 54.6111 149.51 54.2781 149.566 53.9122L150.948 53.9143Z" fill="#2F80ED"/>
<path d="M151.963 56.2531V51.2298H153.215V52.0834C153.354 51.7823 153.566 51.5205 153.832 51.3216C154.081 51.1575 154.374 51.0733 154.672 51.0804H154.802C154.827 51.0789 154.851 51.0789 154.875 51.0804V52.444H154.425C154.275 52.4327 154.124 52.4522 153.981 52.5014C153.839 52.5506 153.708 52.6284 153.597 52.73C153.394 52.9668 153.294 53.2736 153.318 53.5836V56.2403L151.963 56.2531Z" fill="#2F80ED"/>
<path d="M160.103 51.2298V56.2531H158.782V55.6578C158.604 55.8891 158.374 56.0761 158.111 56.2041C157.843 56.3286 157.55 56.3913 157.255 56.3876C156.702 56.3876 156.287 56.2453 156.01 55.9608C155.733 55.6763 155.595 55.2438 155.595 54.6633V51.249H156.944V54.2771C156.92 54.5447 156.984 54.8128 157.126 55.041C157.201 55.123 157.294 55.1863 157.398 55.226C157.501 55.2656 157.613 55.2805 157.724 55.2694C157.862 55.2764 158.001 55.2548 158.13 55.2059C158.26 55.1571 158.378 55.0821 158.477 54.9856C158.573 54.8814 158.648 54.7593 158.696 54.6263C158.744 54.4933 158.765 54.3521 158.758 54.2109V51.2298H160.103Z" fill="#2F80ED"/>
<path d="M160.855 56.2531V55.2224L163.619 52.2968H161.013V51.2298H165.232V52.3245L162.512 55.1307H165.333V56.2489L160.855 56.2531Z" fill="#2F80ED"/>
</svg>