<svg width="17" height="26" viewBox="0 0 17 26" fill="none" xmlns="http://www.w3.org/2000/svg">
<path d="M8.5 12.35C7.69488 12.35 6.92273 12.0076 6.35343 11.3981C5.78412 10.7886 5.46429 9.96195 5.46429 9.1C5.46429 8.23805 5.78412 7.4114 6.35343 6.8019C6.92273 6.19241 7.69488 5.85 8.5 5.85C9.30512 5.85 10.0773 6.19241 10.6466 6.8019C11.2159 7.4114 11.5357 8.23805 11.5357 9.1C11.5357 9.5268 11.4572 9.94941 11.3046 10.3437C11.1521 10.738 10.9285 11.0963 10.6466 11.3981C10.3647 11.6999 10.03 11.9393 9.66172 12.1026C9.29341 12.2659 8.89866 12.35 8.5 12.35ZM8.5 0C6.24566 0 4.08365 0.958747 2.48959 2.66533C0.895533 4.37191 0 6.68653 0 9.1C0 15.925 8.5 26 8.5 26C8.5 26 17 15.925 17 9.1C17 6.68653 16.1045 4.37191 14.5104 2.66533C12.9163 0.958747 10.7543 0 8.5 0Z" fill="#246BD7"/>
</svg>
