<svg width="24" height="24" viewBox="0 0 24 24" fill="none" xmlns="http://www.w3.org/2000/svg">
<path d="M10.8 0V2.484C8.68813 2.75223 6.72527 3.71464 5.21995 5.21995C3.71464 6.72527 2.75223 8.68813 2.484 10.8H0V13.2H2.484C2.75223 15.3119 3.71464 17.2747 5.21995 18.78C6.72527 20.2854 8.68813 21.2478 10.8 21.516V24H13.2V21.516C15.3119 21.2478 17.2747 20.2854 18.78 18.78C20.2854 17.2747 21.2478 15.3119 21.516 13.2H24V10.8H21.516C21.2478 8.68813 20.2854 6.72527 18.78 5.21995C17.2747 3.71464 15.3119 2.75223 13.2 2.484V0H10.8ZM10.8 4.896V7.2H13.2V4.908C16.2 5.4 18.6 7.8 19.104 10.8H16.8V13.2H19.092C18.6 16.2 16.2 18.6 13.2 19.104V16.8H10.8V19.092C7.8 18.6 5.4 16.2 4.896 13.2H7.2V10.8H4.908C5.4 7.8 7.8 5.4 10.8 4.896ZM12 10.8C11.6817 10.8 11.3765 10.9264 11.1515 11.1515C10.9264 11.3765 10.8 11.6817 10.8 12C10.8 12.3183 10.9264 12.6235 11.1515 12.8485C11.3765 13.0736 11.6817 13.2 12 13.2C12.3183 13.2 12.6235 13.0736 12.8485 12.8485C13.0736 12.6235 13.2 12.3183 13.2 12C13.2 11.6817 13.0736 11.3765 12.8485 11.1515C12.6235 10.9264 12.3183 10.8 12 10.8Z" fill="#246BD7"/>
</svg>
